  0
SECTION
  2
HEADER
  9
$ACADVER
  1
AC1027
  9
$ACADMAINTVER
 70
105
  9
$DWGCODEPAGE
  3
ANSI_1252
  9
$LASTSAVEDBY
  1
ezdxf
  9
$REQUIREDVERSIONS
160
0
  9
$INSBASE
 10
0.0
 20
0.0
 30
0.0
  9
$EXTMIN
 10
1e+20
 20
1e+20
 30
1e+20
  9
$EXTMAX
 10
-1e+20
 20
-1e+20
 30
-1e+20
  9
$LIMMIN
 10
0.0
 20
0.0
  9
$LIMMAX
 10
420.0
 20
297.0
  9
$ORTHOMODE
 70
0
  9
$REGENMODE
 70
1
  9
$FILLMODE
 70
1
  9
$QTEXTMODE
 70
0
  9
$MIRRTEXT
 70
1
  9
$LTSCALE
 40
1.0
  9
$ATTMODE
 70
1
  9
$TEXTSIZE
 40
2.5
  9
$TRACEWID
 40
1.0
  9
$TEXTSTYLE
  7
Standard
  9
$CLAYER
  8
0
  9
$CELTYPE
  6
ByLayer
  9
$CECOLOR
 62
256
  9
$CELTSCALE
 40
1.0
  9
$DISPSILH
 70
0
  9
$DIMSCALE
 40
1.0
  9
$DIMASZ
 40
2.5
  9
$DIMEXO
 40
0.625
  9
$DIMDLI
 40
3.75
  9
$DIMRND
 40
0.0
  9
$DIMDLE
 40
0.0
  9
$DIMEXE
 40
1.25
  9
$DIMTP
 40
0.0
  9
$DIMTM
 40
0.0
  9
$DIMTXT
 40
2.5
  9
$DIMCEN
 40
2.5
  9
$DIMTSZ
 40
0.0
  9
$DIMTOL
 70
0
  9
$DIMLIM
 70
0
  9
$DIMTIH
 70
0
  9
$DIMTOH
 70
0
  9
$DIMSE1
 70
0
  9
$DIMSE2
 70
0
  9
$DIMTAD
 70
1
  9
$DIMZIN
 70
8
  9
$DIMBLK
  1

  9
$DIMASO
 70
1
  9
$DIMSHO
 70
1
  9
$DIMPOST
  1

  9
$DIMAPOST
  1

  9
$DIMALT
 70
0
  9
$DIMALTD
 70
3
  9
$DIMALTF
 40
0.03937007874
  9
$DIMLFAC
 40
1.0
  9
$DIMTOFL
 70
1
  9
$DIMTVP
 40
0.0
  9
$DIMTIX
 70
0
  9
$DIMSOXD
 70
0
  9
$DIMSAH
 70
0
  9
$DIMBLK1
  1

  9
$DIMBLK2
  1

  9
$DIMSTYLE
  2
ISO-25
  9
$DIMCLRD
 70
0
  9
$DIMCLRE
 70
0
  9
$DIMCLRT
 70
0
  9
$DIMTFAC
 40
1.0
  9
$DIMGAP
 40
0.625
  9
$DIMJUST
 70
0
  9
$DIMSD1
 70
0
  9
$DIMSD2
 70
0
  9
$DIMTOLJ
 70
0
  9
$DIMTZIN
 70
8
  9
$DIMALTZ
 70
0
  9
$DIMALTTZ
 70
0
  9
$DIMUPT
 70
0
  9
$DIMDEC
 70
2
  9
$DIMTDEC
 70
2
  9
$DIMALTU
 70
2
  9
$DIMALTTD
 70
3
  9
$DIMTXSTY
  7
Standard
  9
$DIMAUNIT
 70
0
  9
$DIMADEC
 70
0
  9
$DIMALTRND
 40
0.0
  9
$DIMAZIN
 70
0
  9
$DIMDSEP
 70
44
  9
$DIMATFIT
 70
3
  9
$DIMFRAC
 70
0
  9
$DIMLDRBLK
  1

  9
$DIMLUNIT
 70
2
  9
$DIMLWD
 70
-2
  9
$DIMLWE
 70
-2
  9
$DIMTMOVE
 70
0
  9
$DIMFXL
 40
1.0
  9
$DIMFXLON
 70
0
  9
$DIMJOGANG
 40
0.785398163397
  9
$DIMTFILL
 70
0
  9
$DIMTFILLCLR
 70
0
  9
$DIMARCSYM
 70
0
  9
$DIMLTYPE
  6

  9
$DIMLTEX1
  6

  9
$DIMLTEX2
  6

  9
$DIMTXTDIRECTION
 70
0
  9
$LUNITS
 70
2
  9
$LUPREC
 70
4
  9
$SKETCHINC
 40
1.0
  9
$FILLETRAD
 40
10.0
  9
$AUNITS
 70
0
  9
$AUPREC
 70
2
  9
$MENU
  1
.
  9
$ELEVATION
 40
0.0
  9
$PELEVATION
 40
0.0
  9
$THICKNESS
 40
0.0
  9
$LIMCHECK
 70
0
  9
$CHAMFERA
 40
0.0
  9
$CHAMFERB
 40
0.0
  9
$CHAMFERC
 40
0.0
  9
$CHAMFERD
 40
0.0
  9
$SKPOLY
 70
0
  9
$TDCREATE
 40
2460763.529340278
  9
$TDUCREATE
 40
2458532.153996898
  9
$TDUPDATE
 40
2460763.529340278
  9
$TDUUPDATE
 40
2458532.1544311
  9
$TDINDWG
 40
0.0
  9
$TDUSRTIMER
 40
0.0
  9
$USRTIMER
 70
1
  9
$ANGBASE
 50
0.0
  9
$ANGDIR
 70
0
  9
$PDMODE
 70
0
  9
$PDSIZE
 40
0.0
  9
$PLINEWID
 40
0.0
  9
$SPLFRAME
 70
0
  9
$SPLINETYPE
 70
6
  9
$SPLINESEGS
 70
8
  9
$HANDSEED
  5
F7
  9
$SURFTAB1
 70
6
  9
$SURFTAB2
 70
6
  9
$SURFTYPE
 70
6
  9
$SURFU
 70
6
  9
$SURFV
 70
6
  9
$UCSBASE
  2

  9
$UCSNAME
  2

  9
$UCSORG
 10
0.0
 20
0.0
 30
0.0
  9
$UCSXDIR
 10
1.0
 20
0.0
 30
0.0
  9
$UCSYDIR
 10
0.0
 20
1.0
 30
0.0
  9
$UCSORTHOREF
  2

  9
$UCSORTHOVIEW
 70
0
  9
$UCSORGTOP
 10
0.0
 20
0.0
 30
0.0
  9
$UCSORGBOTTOM
 10
0.0
 20
0.0
 30
0.0
  9
$UCSORGLEFT
 10
0.0
 20
0.0
 30
0.0
  9
$UCSORGRIGHT
 10
0.0
 20
0.0
 30
0.0
  9
$UCSORGFRONT
 10
0.0
 20
0.0
 30
0.0
  9
$UCSORGBACK
 10
0.0
 20
0.0
 30
0.0
  9
$PUCSBASE
  2

  9
$PUCSNAME
  2

  9
$PUCSORG
 10
0.0
 20
0.0
 30
0.0
  9
$PUCSXDIR
 10
1.0
 20
0.0
 30
0.0
  9
$PUCSYDIR
 10
0.0
 20
1.0
 30
0.0
  9
$PUCSORTHOREF
  2

  9
$PUCSORTHOVIEW
 70
0
  9
$PUCSORGTOP
 10
0.0
 20
0.0
 30
0.0
  9
$PUCSORGBOTTOM
 10
0.0
 20
0.0
 30
0.0
  9
$PUCSORGLEFT
 10
0.0
 20
0.0
 30
0.0
  9
$PUCSORGRIGHT
 10
0.0
 20
0.0
 30
0.0
  9
$PUCSORGFRONT
 10
0.0
 20
0.0
 30
0.0
  9
$PUCSORGBACK
 10
0.0
 20
0.0
 30
0.0
  9
$USERI1
 70
0
  9
$USERI2
 70
0
  9
$USERI3
 70
0
  9
$USERI4
 70
0
  9
$USERI5
 70
0
  9
$USERR1
 40
0.0
  9
$USERR2
 40
0.0
  9
$USERR3
 40
0.0
  9
$USERR4
 40
0.0
  9
$USERR5
 40
0.0
  9
$WORLDVIEW
 70
1
  9
$SHADEDGE
 70
3
  9
$SHADEDIF
 70
70
  9
$TILEMODE
 70
1
  9
$MAXACTVP
 70
64
  9
$PINSBASE
 10
0.0
 20
0.0
 30
0.0
  9
$PLIMCHECK
 70
0
  9
$PEXTMIN
 10
1e+20
 20
1e+20
 30
1e+20
  9
$PEXTMAX
 10
-1e+20
 20
-1e+20
 30
-1e+20
  9
$PLIMMIN
 10
0.0
 20
0.0
  9
$PLIMMAX
 10
420.0
 20
297.0
  9
$UNITMODE
 70
0
  9
$VISRETAIN
 70
1
  9
$PLINEGEN
 70
0
  9
$PSLTSCALE
 70
1
  9
$TREEDEPTH
 70
3020
  9
$CMLSTYLE
  2
Standard
  9
$CMLJUST
 70
0
  9
$CMLSCALE
 40
20.0
  9
$PROXYGRAPHICS
 70
1
  9
$MEASUREMENT
 70
1
  9
$CELWEIGHT
370
-1
  9
$ENDCAPS
280
0
  9
$JOINSTYLE
280
0
  9
$LWDISPLAY
290
0
  9
$INSUNITS
 70
6
  9
$HYPERLINKBASE
  1

  9
$STYLESHEET
  1

  9
$XEDIT
290
1
  9
$CEPSNTYPE
380
0
  9
$PSTYLEMODE
290
1
  9
$FINGERPRINTGUID
  2
{6CF95E55-5F71-4EFF-B40F-E472245AA5CA}
  9
$VERSIONGUID
  2
{8AC84B71-00A8-4FAE-8417-1E572F2813AC}
  9
$EXTNAMES
290
1
  9
$PSVPSCALE
 40
0.0
  9
$OLESTARTUP
290
0
  9
$SORTENTS
280
127
  9
$INDEXCTL
280
0
  9
$HIDETEXT
280
1
  9
$XCLIPFRAME
280
1
  9
$HALOGAP
280
0
  9
$OBSCOLOR
 70
257
  9
$OBSLTYPE
280
0
  9
$INTERSECTIONDISPLAY
280
0
  9
$INTERSECTIONCOLOR
 70
257
  9
$DIMASSOC
280
2
  9
$PROJECTNAME
  1

  9
$CAMERADISPLAY
290
0
  9
$LENSLENGTH
 40
50.0
  9
$CAMERAHEIGHT
 40
0.0
  9
$STEPSPERSEC
 40
24.0
  9
$STEPSIZE
 40
100.0
  9
$3DDWFPREC
 40
2.0
  9
$PSOLWIDTH
 40
0.005
  9
$PSOLHEIGHT
 40
0.08
  9
$LOFTANG1
 40
1.570796326795
  9
$LOFTANG2
 40
1.570796326795
  9
$LOFTMAG1
 40
0.0
  9
$LOFTMAG2
 40
0.0
  9
$LOFTPARAM
 70
7
  9
$LOFTNORMALS
280
1
  9
$LATITUDE
 40
37.795
  9
$LONGITUDE
 40
-122.394
  9
$NORTHDIRECTION
 40
0.0
  9
$TIMEZONE
 70
-8000
  9
$LIGHTGLYPHDISPLAY
280
1
  9
$TILEMODELIGHTSYNCH
280
1
  9
$CMATERIAL
347
20
  9
$SOLIDHIST
280
0
  9
$SHOWHIST
280
1
  9
$DWFFRAME
280
2
  9
$DGNFRAME
280
2
  9
$REALWORLDSCALE
290
1
  9
$INTERFERECOLOR
 62
256
  9
$CSHADOW
280
0
  9
$SHADOWPLANELOCATION
 40
0.0
  0
ENDSEC
  0
SECTION
  2
CLASSES
  0
CLASS
  1
ACDBDICTIONARYWDFLT
  2
AcDbDictionaryWithDefault
  3
ObjectDBX Classes
 90
0
 91
0
280
0
281
0
  0
CLASS
  1
SUN
  2
AcDbSun
  3
SCENEOE
 90
1153
 91
0
280
0
281
0
  0
CLASS
  1
VISUALSTYLE
  2
AcDbVisualStyle
  3
ObjectDBX Classes
 90
4095
 91
0
280
0
281
0
  0
CLASS
  1
MATERIAL
  2
AcDbMaterial
  3
ObjectDBX Classes
 90
1153
 91
0
280
0
281
0
  0
CLASS
  1
SCALE
  2
AcDbScale
  3
ObjectDBX Classes
 90
1153
 91
0
280
0
281
0
  0
CLASS
  1
TABLESTYLE
  2
AcDbTableStyle
  3
ObjectDBX Classes
 90
4095
 91
0
280
0
281
0
  0
CLASS
  1
MLEADERSTYLE
  2
AcDbMLeaderStyle
  3
ACDB_MLEADERSTYLE_CLASS
 90
4095
 91
0
280
0
281
0
  0
CLASS
  1
DICTIONARYVAR
  2
AcDbDictionaryVar
  3
ObjectDBX Classes
 90
0
 91
0
280
0
281
0
  0
CLASS
  1
CELLSTYLEMAP
  2
AcDbCellStyleMap
  3
ObjectDBX Classes
 90
1152
 91
0
280
0
281
0
  0
CLASS
  1
MENTALRAYRENDERSETTINGS
  2
AcDbMentalRayRenderSettings
  3
SCENEOE
 90
1024
 91
0
280
0
281
0
  0
CLASS
  1
ACDBDETAILVIEWSTYLE
  2
AcDbDetailViewStyle
  3
ObjectDBX Classes
 90
1025
 91
0
280
0
281
0
  0
CLASS
  1
ACDBSECTIONVIEWSTYLE
  2
AcDbSectionViewStyle
  3
ObjectDBX Classes
 90
1025
 91
0
280
0
281
0
  0
CLASS
  1
RASTERVARIABLES
  2
AcDbRasterVariables
  3
ISM
 90
0
 91
0
280
0
281
0
  0
CLASS
  1
LAYOUT
  2
AcDbLayout
  3
ObjectDBX Classes
 90
0
 91
0
280
0
281
0
  0
CLASS
  1
ACDBPLACEHOLDER
  2
AcDbPlaceHolder
  3
ObjectDBX Classes
 90
0
 91
0
280
0
281
0
  0
ENDSEC
  0
SECTION
  2
TABLES
  0
TABLE
  2
VPORT
  5
8
330
0
100
AcDbSymbolTable
 70
1
  0
VPORT
  5
23
330
8
100
AcDbSymbolTableRecord
100
AcDbViewportTableRecord
  2
*Active
 70
0
 10
0.0
 20
0.0
 11
1.0
 21
1.0
 12
0.0
 22
0.0
 13
0.0
 23
0.0
 14
0.5
 24
0.5
 15
0.5
 25
0.5
 16
0.0
 26
0.0
 36
1.0
 17
0.0
 27
0.0
 37
0.0
 40
1000.0
 41
1.34
 42
50.0
 43
0.0
 44
0.0
 50
0.0
 51
0.0
 71
0
 72
1000
 73
1
 74
3
 75
0
 76
0
 77
0
 78
0
281
0
 65
0
146
0.0
  0
ENDTAB
  0
TABLE
  2
LTYPE
  5
2
330
0
100
AcDbSymbolTable
 70
3
  0
LTYPE
  5
24
330
2
100
AcDbSymbolTableRecord
100
AcDbLinetypeTableRecord
  2
ByBlock
 70
0
  3

 72
65
 73
0
 40
0.0
  0
LTYPE
  5
25
330
2
100
AcDbSymbolTableRecord
100
AcDbLinetypeTableRecord
  2
ByLayer
 70
0
  3

 72
65
 73
0
 40
0.0
  0
LTYPE
  5
26
330
2
100
AcDbSymbolTableRecord
100
AcDbLinetypeTableRecord
  2
Continuous
 70
0
  3

 72
65
 73
0
 40
0.0
  0
ENDTAB
  0
TABLE
  2
LAYER
  5
1
330
0
100
AcDbSymbolTable
 70
2
  0
LAYER
  5
27
330
1
100
AcDbSymbolTableRecord
100
AcDbLayerTableRecord
  2
0
 70
0
 62
7
  6
Continuous
370
-3
390
13
347
21
  0
LAYER
  5
28
330
1
100
AcDbSymbolTableRecord
100
AcDbLayerTableRecord
  2
Defpoints
 70
0
 62
7
  6
Continuous
290
0
370
-3
390
13
347
21
  0
ENDTAB
  0
TABLE
  2
STYLE
  5
5
330
0
100
AcDbSymbolTable
 70
1
  0
STYLE
  5
29
330
5
100
AcDbSymbolTableRecord
100
AcDbTextStyleTableRecord
  2
Standard
 70
0
 40
0.0
 41
1.0
 50
0.0
 71
0
 42
2.5
  3
txt
  4

  0
ENDTAB
  0
TABLE
  2
VIEW
  5
7
330
0
100
AcDbSymbolTable
 70
0
  0
ENDTAB
  0
TABLE
  2
UCS
  5
6
330
0
100
AcDbSymbolTable
 70
0
  0
ENDTAB
  0
TABLE
  2
APPID
  5
3
330
0
100
AcDbSymbolTable
 70
3
  0
APPID
  5
2A
330
3
100
AcDbSymbolTableRecord
100
AcDbRegAppTableRecord
  2
ACAD
 70
0
  0
APPID
  5
F4
330
3
100
AcDbSymbolTableRecord
100
AcDbRegAppTableRecord
  2
HATCHBACKGROUNDCOLOR
 70
0
  0
APPID
  5
F5
330
3
100
AcDbSymbolTableRecord
100
AcDbRegAppTableRecord
  2
EZDXF
 70
0
  0
ENDTAB
  0
TABLE
  2
DIMSTYLE
  5
4
330
0
100
AcDbSymbolTable
 70
1
100
AcDbDimStyleTable
  0
DIMSTYLE
105
2B
330
4
100
AcDbSymbolTableRecord
100
AcDbDimStyleTableRecord
  2
Standard
 70
0
 40
1.0
 41
2.5
 42
0.625
 43
3.75
 44
1.25
 45
0.0
 46
0.0
 47
0.0
 48
0.0
 49
2.5
140
2.5
141
2.5
142
0.0
143
0.03937007874
144
1.0
145
0.0
146
1.0
147
0.625
148
0.0
 69
0
 70
0
 71
0
 72
0
 73
0
 74
0
 75
0
 76
0
 77
1
 78
8
 79
3
170
0
171
3
172
1
173
0
174
0
175
0
176
0
177
0
178
0
179
2
271
2
272
2
273
2
274
3
275
0
276
0
277
2
278
44
279
0
280
0
281
0
282
0
283
0
284
8
285
0
286
0
288
0
289
3
290
0
371
-2
372
-2
  0
ENDTAB
  0
TABLE
  2
BLOCK_RECORD
  5
9
330
0
100
AcDbSymbolTable
 70
2
  0
BLOCK_RECORD
  5
17
330
9
100
AcDbSymbolTableRecord
100
AcDbBlockTableRecord
  2
*Model_Space
340
1A
 70
0
280
1
281
0
  0
BLOCK_RECORD
  5
1B
330
9
100
AcDbSymbolTableRecord
100
AcDbBlockTableRecord
  2
*Paper_Space
340
1E
 70
0
280
1
281
0
  0
ENDTAB
  0
ENDSEC
  0
SECTION
  2
BLOCKS
  0
BLOCK
  5
18
330
17
100
AcDbEntity
  8
0
100
AcDbBlockBegin
  2
*Model_Space
 70
0
 10
0.0
 20
0.0
 30
0.0
  3
*Model_Space
  1

  0
ENDBLK
  5
19
330
17
100
AcDbEntity
  8
0
100
AcDbBlockEnd
  0
BLOCK
  5
1C
330
1B
100
AcDbEntity
  8
0
100
AcDbBlockBegin
  2
*Paper_Space
 70
0
 10
0.0
 20
0.0
 30
0.0
  3
*Paper_Space
  1

  0
ENDBLK
  5
1D
330
1B
100
AcDbEntity
  8
0
100
AcDbBlockEnd
  0
ENDSEC
  0
SECTION
  2
ENTITIES
  0
LINE
  5
2F
330
17
100
AcDbEntity
  8
0
100
AcDbLine
 10
598.292658
 20
-2180.3
 30
0.0
 11
590.552482
 21
-2180.3
 31
0.0
  0
LINE
  5
30
330
17
100
AcDbEntity
  8
0
100
AcDbLine
 10
581.430143
 20
-2180.3
 30
0.0
 11
561.269857
 21
-2180.3
 31
0.0
  0
LINE
  5
31
330
17
100
AcDbEntity
  8
0
100
AcDbLine
 10
552.147518
 20
-2180.3
 30
0.0
 11
544.62437
 21
-2180.3
 31
0.0
  0
LINE
  5
32
330
17
100
AcDbEntity
  8
0
100
AcDbLine
 10
552.991599
 20
-2179.836215
 30
0.0
 11
560.942799
 21
-2167.319842
 31
0.0
  0
LINE
  5
33
330
17
100
AcDbEntity
  8
0
100
AcDbLine
 10
581.757201
 20
-2167.319842
 30
0.0
 11
589.708401
 21
-2179.836215
 31
0.0
  0
LINE
  5
34
330
17
100
AcDbEntity
  8
0
100
AcDbLine
 10
587.35
 20
-2187.3
 30
0.0
 11
564.264364
 21
-2187.3
 31
0.0
  0
LINE
  5
35
330
17
100
AcDbEntity
  8
0
100
AcDbLine
 10
587.35
 20
-2187.3
 30
0.0
 11
589.680685
 21
-2187.247611
 31
0.0
  0
LINE
  5
36
330
17
100
AcDbEntity
  8
0
100
AcDbLine
 10
594.160012
 20
-2195.255589
 30
0.0
 11
593.753443
 21
-2190.876794
 31
0.0
  0
LINE
  5
37
330
17
100
AcDbEntity
  8
0
100
AcDbLine
 10
578.752202
 20
-2213.735221
 30
0.0
 11
593.101935
 21
-2198.354058
 31
0.0
  0
LINE
  5
38
330
17
100
AcDbEntity
  8
0
100
AcDbLine
 10
565.505369
 20
-2235.602227
 30
0.0
 11
578.627668
 21
-2213.899967
 31
0.0
  0
LINE
  5
39
330
17
100
AcDbEntity
  8
0
100
AcDbLine
 10
551.693392
 20
-2219.833616
 30
0.0
 11
562.123712
 21
-2235.667595
 31
0.0
  0
LINE
  5
3A
330
17
100
AcDbEntity
  8
0
100
AcDbLine
 10
548.291749
 20
-2207.767477
 30
0.0
 11
551.56497
 21
-2219.551155
 31
0.0
  0
LINE
  5
3B
330
17
100
AcDbEntity
  8
0
100
AcDbLine
 10
546.978338
 20
-2200.0256
 30
0.0
 11
548.269241
 21
-2207.666423
 31
0.0
  0
LINE
  5
3C
330
17
100
AcDbEntity
  8
0
100
AcDbLine
 10
547.182811
 20
-2197.939694
 30
0.0
 11
549.103291
 21
-2192.880443
 31
0.0
  0
LINE
  5
3D
330
17
100
AcDbEntity
  8
0
100
AcDbLine
 10
559.335636
 20
-2190.3
 30
0.0
 11
552.842925
 21
-2190.3
 31
0.0
  0
LINE
  5
3E
330
17
100
AcDbEntity
  8
0
100
AcDbLine
 10
559.907818
 20
-2190.120127
 30
0.0
 11
563.692182
 21
-2187.479873
 31
0.0
  0
LINE
  5
3F
330
17
100
AcDbEntity
  8
0
100
AcDbLine
 10
592.324784
 20
-2208.422367
 30
0.0
 11
581.812354
 21
-2219.69041
 31
0.0
  0
LINE
  5
40
330
17
100
AcDbEntity
  8
0
100
AcDbLine
 10
596.059359
 20
-2214.699906
 30
0.0
 11
595.784185
 21
-2209.677288
 31
0.0
  0
LINE
  5
41
330
17
100
AcDbEntity
  8
0
100
AcDbLine
 10
599.751824
 20
-2278.123762
 30
0.0
 11
598.922935
 21
-2263.743701
 31
0.0
  0
LINE
  5
42
330
17
100
AcDbEntity
  8
0
100
AcDbLine
 10
595.975297
 20
-2279.151085
 30
0.0
 11
585.484122
 21
-2258.681897
 31
0.0
  0
LINE
  5
43
330
17
100
AcDbEntity
  8
0
100
AcDbLine
 10
585.254557
 20
-2258.38706
 30
0.0
 11
568.971722
 21
-2244.068609
 31
0.0
  0
LINE
  5
44
330
17
100
AcDbEntity
  8
0
100
AcDbLine
 10
581.68782
 20
-2219.855156
 30
0.0
 11
568.580971
 21
-2241.531865
 31
0.0
  0
LINE
  5
45
330
17
100
AcDbEntity
  8
0
100
AcDbLine
 10
581.066659
 20
-2262.121397
 30
0.0
 11
592.307175
 21
-2284.052614
 31
0.0
  0
LINE
  5
46
330
17
100
AcDbEntity
  8
0
100
AcDbLine
 10
590.809096
 20
-2286.944898
 30
0.0
 11
546.4304
 21
-2293.259995
 31
0.0
  0
LINE
  5
47
330
17
100
AcDbEntity
  8
0
100
AcDbLine
 10
546.268808
 20
-2293.269754
 30
0.0
 11
518.35402
 21
-2292.691483
 31
0.0
  0
LINE
  5
48
330
17
100
AcDbEntity
  8
0
100
AcDbLine
 10
517.280618
 20
-2289.03144
 30
0.0
 11
540.764745
 21
-2273.264416
 31
0.0
  0
LINE
  5
49
330
17
100
AcDbEntity
  8
0
100
AcDbLine
 10
540.961326
 20
-2273.091062
 30
0.0
 11
562.495528
 21
-2248.373326
 31
0.0
  0
LINE
  5
4A
330
17
100
AcDbEntity
  8
0
100
AcDbLine
 10
565.324227
 20
-2248.185186
 30
0.0
 11
580.837095
 21
-2261.82656
 31
0.0
  0
LINE
  5
4B
330
17
100
AcDbEntity
  8
0
100
AcDbLine
 10
558.398016
 20
-2243.942541
 30
0.0
 11
536.958362
 21
-2268.551751
 31
0.0
  0
LINE
  5
4C
330
17
100
AcDbEntity
  8
0
100
AcDbLine
 10
536.761782
 20
-2268.725105
 30
0.0
 11
515.931277
 21
-2282.710512
 31
0.0
  0
LINE
  5
4D
330
17
100
AcDbEntity
  8
0
100
AcDbLine
 10
512.957974
 20
-2280.311082
 30
0.0
 11
516.684739
 21
-2270.938271
 31
0.0
  0
LINE
  5
4E
330
17
100
AcDbEntity
  8
0
100
AcDbLine
 10
539.215763
 20
-2210.414462
 30
0.0
 11
534.720883
 21
-2223.679801
 31
0.0
  0
LINE
  5
4F
330
17
100
AcDbEntity
  8
0
100
AcDbLine
 10
546.569603
 20
-2223.238437
 30
0.0
 11
543.037011
 21
-2210.52102
 31
0.0
  0
LINE
  5
50
330
17
100
AcDbEntity
  8
0
100
AcDbLine
 10
546.698025
 20
-2223.520898
 30
0.0
 11
558.560223
 21
-2241.52857
 31
0.0
  0
LINE
  5
51
330
17
100
AcDbEntity
  8
0
100
AcDbLine
 10
601.440484
 20
-2212.61244
 30
0.0
 11
600.29123
 21
-2182.224415
 31
0.0
  0
LINE
  5
52
330
17
100
AcDbEntity
  8
0
100
AcDbLine
 10
603.861203
 20
-2264.266504
 30
0.0
 11
604.412073
 21
-2273.823314
 31
0.0
  0
LINE
  5
53
330
17
100
AcDbEntity
  8
0
100
AcDbLine
 10
591.536289
 20
-2291.386751
 30
0.0
 11
546.702565
 21
-2297.766598
 31
0.0
  0
LINE
  5
54
330
17
100
AcDbEntity
  8
0
100
AcDbLine
 10
546.540973
 20
-2297.776357
 30
0.0
 11
510.906948
 21
-2297.038178
 31
0.0
  0
LINE
  5
55
330
17
100
AcDbEntity
  8
0
100
AcDbLine
 10
504.691605
 20
-2285.132556
 30
0.0
 11
511.392464
 21
-2268.279901
 31
0.0
  0
LINE
  5
56
330
17
100
AcDbEntity
  8
0
100
AcDbLine
 10
528.990847
 20
-2222.205765
 30
0.0
 11
542.730158
 21
-2181.658158
 31
0.0
  0
LINE
  5
57
330
17
100
AcDbEntity
  8
0
100
AcDbLine
 10
560.425776
 20
-2178.763785
 30
0.0
 11
565.025289
 21
-2171.523465
 31
0.0
  0
LINE
  5
58
330
17
100
AcDbEntity
  8
0
100
AcDbLine
 10
577.674711
 20
-2171.523465
 30
0.0
 11
582.274224
 21
-2178.763785
 31
0.0
  0
ARC
  5
59
330
17
100
AcDbEntity
  8
0
100
AcDbCircle
 10
529.937953
 20
-2222.526686
 30
0.0
 40
1.0
100
AcDbArc
 50
161.281362
 51
169.961687
  0
ARC
  5
5A
330
17
100
AcDbEntity
  8
0
100
AcDbCircle
 10
546.561684
 20
-2296.776572
 30
0.0
 40
1.0
100
AcDbArc
 50
268.813255
 51
278.098827
  0
ARC
  5
5B
330
17
100
AcDbEntity
  8
0
100
AcDbCircle
 10
535.667989
 20
-2224.000722
 30
0.0
 40
1.0
100
AcDbArc
 50
161.281362
 51
169.772166
  0
ARC
  5
5C
330
17
100
AcDbEntity
  8
0
100
AcDbCircle
 10
549.255267
 20
-2207.499835
 30
0.0
 40
1.0
100
AcDbArc
 50
189.589462
 51
195.524008
  0
ARC
  5
5D
330
17
100
AcDbEntity
  8
0
100
AcDbCircle
 10
564.264364
 20
-2188.3
 30
0.0
 40
1.0
100
AcDbArc
 50
90.0
 51
124.902496
  0
ARC
  5
5E
330
17
100
AcDbEntity
  8
0
100
AcDbCircle
 10
559.335636
 20
-2189.3
 30
0.0
 40
1.0
100
AcDbArc
 50
270.0
 51
304.902496
  0
ARC
  5
5F
330
17
100
AcDbEntity
  8
0
100
AcDbCircle
 10
552.528488
 20
-2219.283513
 30
0.0
 40
1.0
100
AcDbArc
 50
195.524008
 51
213.374105
  0
ARC
  5
60
330
17
100
AcDbEntity
  8
0
100
AcDbCircle
 10
547.533121
 20
-2222.970795
 30
0.0
 40
1.0
100
AcDbArc
 50
195.524008
 51
213.374105
  0
ARC
  5
61
330
17
100
AcDbEntity
  8
0
100
AcDbCircle
 10
517.613978
 20
-2271.30775
 30
0.0
 40
1.0
100
AcDbArc
 50
148.450638
 51
158.316517
  0
ARC
  5
62
330
17
100
AcDbEntity
  8
0
100
AcDbCircle
 10
512.321704
 20
-2268.64938
 30
0.0
 40
1.0
100
AcDbArc
 50
148.230278
 51
158.316517
  0
ARC
  5
63
330
17
100
AcDbEntity
  8
0
100
AcDbCircle
 10
546.289519
 20
-2292.269968
 30
0.0
 40
1.0
100
AcDbArc
 50
268.813255
 51
278.098827
  0
ARC
  5
64
330
17
100
AcDbEntity
  8
0
100
AcDbCircle
 10
536.204369
 20
-2267.894869
 30
0.0
 40
1.0
100
AcDbArc
 50
303.877044
 51
318.937475
  0
ARC
  5
65
330
17
100
AcDbEntity
  8
0
100
AcDbCircle
 10
540.207332
 20
-2272.43418
 30
0.0
 40
1.0
100
AcDbArc
 50
303.877044
 51
318.937475
  0
ARC
  5
66
330
17
100
AcDbEntity
  8
0
100
AcDbCircle
 10
580.176738
 20
-2262.577512
 30
0.0
 40
1.0
100
AcDbArc
 50
27.136728
 51
48.67294
  0
ARC
  5
67
330
17
100
AcDbEntity
  8
0
100
AcDbCircle
 10
584.594201
 20
-2259.138012
 30
0.0
 40
1.0
100
AcDbArc
 50
27.136728
 51
48.67294
  0
ARC
  5
68
330
17
100
AcDbEntity
  8
0
100
AcDbCircle
 10
582.543552
 20
-2220.372575
 30
0.0
 40
1.0
100
AcDbArc
 50
136.98692
 51
148.840692
  0
ARC
  5
69
330
17
100
AcDbEntity
  8
0
100
AcDbCircle
 10
579.4834
 20
-2214.417387
 30
0.0
 40
1.0
100
AcDbArc
 50
136.98692
 51
148.840692
  0
ARC
  5
6A
330
17
100
AcDbEntity
  8
0
100
AcDbCircle
 10
603.039358
 20
-2289.749862
 30
0.0
 40
5.0
100
AcDbArc
 50
270.0
 51
0.0
  0
ARC
  5
6B
330
17
100
AcDbEntity
  8
0
100
AcDbCircle
 10
499.616377
 20
-2295.804073
 30
0.0
 40
5.0
100
AcDbArc
 50
270.0
 51
0.0
  0
ARC
  5
6C
330
17
100
AcDbEntity
  8
0
100
AcDbCircle
 10
571.35
 20
-2160.271436
 30
0.0
 40
7.5
100
AcDbArc
 50
270.0
 51
0.0
  0
ARC
  5
6D
330
17
100
AcDbEntity
  8
0
100
AcDbCircle
 10
581.430143
 20
-2179.3
 30
0.0
 40
1.0
100
AcDbArc
 50
270.0
 51
32.426321
  0
ARC
  5
6E
330
17
100
AcDbEntity
  8
0
100
AcDbCircle
 10
576.830629
 20
-2172.05968
 30
0.0
 40
1.0
100
AcDbArc
 50
32.426321
 51
114.934811
  0
ARC
  5
6F
330
17
100
AcDbEntity
  8
0
100
AcDbCircle
 10
565.869371
 20
-2172.05968
 30
0.0
 40
1.0
100
AcDbArc
 50
65.065189
 51
147.573679
  0
ARC
  5
70
330
17
100
AcDbEntity
  8
0
100
AcDbCircle
 10
561.269857
 20
-2179.3
 30
0.0
 40
1.0
100
AcDbArc
 50
147.573679
 51
270.0
  0
ARC
  5
71
330
17
100
AcDbEntity
  8
0
100
AcDbCircle
 10
552.147518
 20
-2179.3
 30
0.0
 40
1.0
100
AcDbArc
 50
270.0
 51
327.573679
  0
ARC
  5
72
330
17
100
AcDbEntity
  8
0
100
AcDbCircle
 10
560.098717
 20
-2166.783627
 30
0.0
 40
1.0
100
AcDbArc
 50
327.573679
 51
30.062064
  0
ARC
  5
73
330
17
100
AcDbEntity
  8
0
100
AcDbCircle
 10
582.601283
 20
-2166.783627
 30
0.0
 40
1.0
100
AcDbArc
 50
149.937936
 51
212.426321
  0
ARC
  5
74
330
17
100
AcDbEntity
  8
0
100
AcDbCircle
 10
590.552482
 20
-2179.3
 30
0.0
 40
1.0
100
AcDbArc
 50
212.426321
 51
270.0
  0
ARC
  5
75
330
17
100
AcDbEntity
  8
0
100
AcDbCircle
 10
571.35
 20
-2160.271436
 30
0.0
 40
7.5
100
AcDbArc
 50
0.0
 51
90.0
  0
ARC
  5
76
330
17
100
AcDbEntity
  8
0
100
AcDbCircle
 10
571.35
 20
-2160.271436
 30
0.0
 40
7.5
100
AcDbArc
 50
90.0
 51
270.0
  0
ARC
  5
77
330
17
100
AcDbEntity
  8
0
100
AcDbCircle
 10
499.616377
 20
-2295.804073
 30
0.0
 40
5.0
100
AcDbArc
 50
0.0
 51
90.0
  0
ARC
  5
78
330
17
100
AcDbEntity
  8
0
100
AcDbCircle
 10
499.616377
 20
-2295.804073
 30
0.0
 40
5.0
100
AcDbArc
 50
90.0
 51
270.0
  0
ARC
  5
79
330
17
100
AcDbEntity
  8
0
100
AcDbCircle
 10
603.039358
 20
-2289.749862
 30
0.0
 40
5.0
100
AcDbArc
 50
0.0
 51
90.0
  0
ARC
  5
7A
330
17
100
AcDbEntity
  8
0
100
AcDbCircle
 10
603.039358
 20
-2289.749862
 30
0.0
 40
5.0
100
AcDbArc
 50
90.0
 51
270.0
  0
ARC
  5
7B
330
17
100
AcDbEntity
  8
0
100
AcDbCircle
 10
589.770575
 20
-2191.246601
 30
0.0
 40
4.0
100
AcDbArc
 50
5.30467
 51
91.287682
  0
ARC
  5
7C
330
17
100
AcDbEntity
  8
0
100
AcDbCircle
 10
590.177143
 20
-2195.625396
 30
0.0
 40
4.0
100
AcDbArc
 50
316.98692
 51
5.30467
  0
ARC
  5
7D
330
17
100
AcDbEntity
  8
0
100
AcDbCircle
 10
563.793906
 20
-2234.567388
 30
0.0
 40
2.0
100
AcDbArc
 50
213.374105
 51
328.840692
  0
ARC
  5
7E
330
17
100
AcDbEntity
  8
0
100
AcDbCircle
 10
550.922444
 20
-2199.359251
 30
0.0
 40
4.0
100
AcDbArc
 50
159.213347
 51
189.589462
  0
ARC
  5
7F
330
17
100
AcDbEntity
  8
0
100
AcDbCircle
 10
552.842925
 20
-2194.3
 30
0.0
 40
4.0
100
AcDbArc
 50
90.0
 51
159.213347
  0
ARC
  5
80
330
17
100
AcDbEntity
  8
0
100
AcDbCircle
 10
593.78718
 20
-2209.786698
 30
0.0
 40
2.0
100
AcDbArc
 50
3.135929
 51
136.98692
  0
ARC
  5
81
330
17
100
AcDbEntity
  8
0
100
AcDbCircle
 10
556.119257
 20
-2216.888105
 30
0.0
 40
40.0
100
AcDbArc
 50
349.678003
 51
3.135929
  0
ARC
  5
82
330
17
100
AcDbEntity
  8
0
100
AcDbCircle
 10
658.661535
 20
-2235.563866
 30
0.0
 40
64.2290889851
100
AcDbArc
 50
169.678003
 51
197.004622
  0
ARC
  5
83
330
17
100
AcDbEntity
  8
0
100
AcDbCircle
 10
558.989221
 20
-2266.045543
 30
0.0
 40
40.0
100
AcDbArc
 50
3.298968
 51
17.004622
  0
ARC
  5
84
330
17
100
AcDbEntity
  8
0
100
AcDbCircle
 10
597.755138
 20
-2278.238854
 30
0.0
 40
2.0
100
AcDbArc
 50
207.136728
 51
3.298968
  0
ARC
  5
85
330
17
100
AcDbEntity
  8
0
100
AcDbCircle
 10
570.292435
 20
-2242.566704
 30
0.0
 40
2.0
100
AcDbArc
 50
148.840692
 51
228.67294
  0
ARC
  5
86
330
17
100
AcDbEntity
  8
0
100
AcDbCircle
 10
590.527334
 20
-2284.964845
 30
0.0
 40
2.0
100
AcDbArc
 50
278.098827
 51
27.136728
  0
ARC
  5
87
330
17
100
AcDbEntity
  8
0
100
AcDbCircle
 10
518.395443
 20
-2290.691912
 30
0.0
 40
2.0
100
AcDbArc
 50
123.877044
 51
268.813255
  0
ARC
  5
88
330
17
100
AcDbEntity
  8
0
100
AcDbCircle
 10
564.003514
 20
-2249.687091
 30
0.0
 40
2.0
100
AcDbArc
 50
48.67294
 51
138.937474
  0
ARC
  5
89
330
17
100
AcDbEntity
  8
0
100
AcDbCircle
 10
556.890029
 20
-2242.628777
 30
0.0
 40
2.0
100
AcDbArc
 50
318.937475
 51
33.374105
  0
ARC
  5
8A
330
17
100
AcDbEntity
  8
0
100
AcDbCircle
 10
514.816452
 20
-2281.05004
 30
0.0
 40
2.0
100
AcDbArc
 50
158.316518
 51
303.877044
  0
ARC
  5
8B
330
17
100
AcDbEntity
  8
0
100
AcDbCircle
 10
400.986704
 20
-2199.700182
 30
0.0
 40
135.856
100
AcDbArc
 50
328.450638
 51
349.772166
  0
ARC
  5
8C
330
17
100
AcDbEntity
  8
0
100
AcDbCircle
 10
541.109975
 20
-2211.056304
 30
0.0
 40
2.0
100
AcDbArc
 50
15.524008
 51
161.281362
  0
ARC
  5
8D
330
17
100
AcDbEntity
  8
0
100
AcDbCircle
 10
598.292658
 20
-2182.3
 30
0.0
 40
2.0
100
AcDbArc
 50
2.165856
 51
90.0
  0
ARC
  5
8E
330
17
100
AcDbEntity
  8
0
100
AcDbCircle
 10
561.46906
 20
-2214.124132
 30
0.0
 40
40.0
100
AcDbArc
 50
347.560316
 51
2.165856
  0
ARC
  5
8F
330
17
100
AcDbEntity
  8
0
100
AcDbCircle
 10
658.661535
 20
-2235.563866
 30
0.0
 40
59.5290889851
100
AcDbArc
 50
167.560316
 51
197.461187
  0
ARC
  5
90
330
17
100
AcDbEntity
  8
0
100
AcDbCircle
 10
559.235278
 20
-2266.838812
 30
0.0
 40
44.7
100
AcDbArc
 50
3.298968
 51
17.461187
  0
ARC
  5
91
330
17
100
AcDbEntity
  8
0
100
AcDbCircle
 10
617.39053
 20
-2273.075215
 30
0.0
 40
13.0
100
AcDbArc
 50
183.298968
 51
229.282796
  0
ARC
  5
92
330
17
100
AcDbEntity
  8
0
100
AcDbCircle
 10
603.039358
 20
-2289.749862
 30
0.0
 40
9.000000000000002
100
AcDbArc
 50
202.576339
 51
49.282796
  0
ARC
  5
93
330
17
100
AcDbEntity
  8
0
100
AcDbCircle
 10
591.958932
 20
-2294.356831
 30
0.0
 40
3.0
100
AcDbArc
 50
22.576339
 51
98.098827
  0
ARC
  5
94
330
17
100
AcDbEntity
  8
0
100
AcDbCircle
 10
510.844815
 20
-2300.037534
 30
0.0
 40
3.0
100
AcDbArc
 50
88.813255
 51
159.342034
  0
ARC
  5
95
330
17
100
AcDbEntity
  8
0
100
AcDbCircle
 10
499.616377
 20
-2295.804073
 30
0.0
 40
9.000000000000002
100
AcDbArc
 50
79.010687
 51
339.342034
  0
ARC
  5
96
330
17
100
AcDbEntity
  8
0
100
AcDbCircle
 10
501.903888
 20
-2284.024119
 30
0.0
 40
3.0
100
AcDbArc
 50
259.010687
 51
338.316517
  0
ARC
  5
97
330
17
100
AcDbEntity
  8
0
100
AcDbCircle
 10
400.986704
 20
-2199.700182
 30
0.0
 40
129.956
100
AcDbArc
 50
328.230278
 51
349.961687
  0
ARC
  5
98
330
17
100
AcDbEntity
  8
0
100
AcDbCircle
 10
544.62437
 20
-2182.3
 30
0.0
 40
2.0
100
AcDbArc
 50
90.0
 51
161.281362
  0
ARC
  5
99
330
17
100
AcDbEntity
  8
0
100
AcDbCircle
 10
571.35
 20
-2160.271436
 30
0.0
 40
12.0
100
AcDbArc
 50
329.937936
 51
210.062064
  0
ARC
  5
9A
330
17
100
AcDbEntity
  8
0
100
AcDbCircle
 10
571.35
 20
-2160.271436
 30
0.0
 40
12.0
100
AcDbArc
 50
245.065188
 51
294.934812
  0
LINE
  5
9B
330
17
100
AcDbEntity
  8
0
100
AcDbLine
 10
552.991599
 20
-2179.836215
 30
0.0
 11
552.9915996839584
 21
-2179.836214612638
 31
0.0
  0
LINE
  5
9C
330
17
100
AcDbEntity
  8
0
100
AcDbLine
 10
560.942799
 20
-2167.319842
 30
0.0
 11
560.9427986839584
 21
-2167.3198416126374
 31
0.0
  0
LINE
  5
9D
330
17
100
AcDbEntity
  8
0
100
AcDbLine
 10
581.757201
 20
-2167.319842
 30
0.0
 11
581.7572013160416
 21
-2167.3198416126374
 31
0.0
  0
LINE
  5
9E
330
17
100
AcDbEntity
  8
0
100
AcDbLine
 10
589.708401
 20
-2179.836215
 30
0.0
 11
589.7084003160415
 21
-2179.836214612638
 31
0.0
  0
LINE
  5
9F
330
17
100
AcDbEntity
  8
0
100
AcDbLine
 10
589.680685
 20
-2187.247611
 30
0.0
 11
589.6806854050832
 21
-2187.2476111449582
 31
0.0
  0
LINE
  5
A0
330
17
100
AcDbEntity
  8
0
100
AcDbLine
 10
594.160012
 20
-2195.255589
 30
0.0
 11
594.1600116641563
 21
-2195.2555890178032
 31
0.0
  0
LINE
  5
A1
330
17
100
AcDbEntity
  8
0
100
AcDbLine
 10
593.753443
 20
-2190.876794
 30
0.0
 11
593.7534436641563
 21
-2190.876794017803
 31
0.0
  0
LINE
  5
A2
330
17
100
AcDbEntity
  8
0
100
AcDbLine
 10
578.752202
 20
-2213.735221
 30
0.0
 11
578.7522020102058
 21
-2213.735221697657
 31
0.0
  0
LINE
  5
A3
330
17
100
AcDbEntity
  8
0
100
AcDbLine
 10
593.101935
 20
-2198.354058
 30
0.0
 11
593.1019349591768
 21
-2198.3540572093725
 31
0.0
  0
LINE
  5
A4
330
17
100
AcDbEntity
  8
0
100
AcDbLine
 10
565.505369
 20
-2235.602227
 30
0.0
 11
565.5053699040972
 21
-2235.6022267821163
 31
0.0
  0
LINE
  5
A5
330
17
100
AcDbEntity
  8
0
100
AcDbLine
 10
578.627668
 20
-2213.899967
 30
0.0
 11
578.6276680479514
 21
-2213.8999676089416
 31
0.0
  0
LINE
  5
A6
330
17
100
AcDbEntity
  8
0
100
AcDbLine
 10
551.693392
 20
-2219.833616
 30
0.0
 11
551.6933914305814
 21
-2219.8336163718723
 31
0.0
  0
LINE
  5
A7
330
17
100
AcDbEntity
  8
0
100
AcDbLine
 10
562.123712
 20
-2235.667595
 30
0.0
 11
562.1237128611627
 21
-2235.6675947437443
 31
0.0
  0
LINE
  5
A8
330
17
100
AcDbEntity
  8
0
100
AcDbLine
 10
548.291749
 20
-2207.767477
 30
0.0
 11
548.2917486092463
 21
-2207.7674771317347
 31
0.0
  0
LINE
  5
A9
330
17
100
AcDbEntity
  8
0
100
AcDbLine
 10
551.56497
 20
-2219.551155
 30
0.0
 11
551.5649696092463
 21
-2219.5511551317345
 31
0.0
  0
LINE
  5
AA
330
17
100
AcDbEntity
  8
0
100
AcDbLine
 10
546.978338
 20
-2200.0256
 30
0.0
 11
546.9783372281294
 21
-2200.0256005869915
 31
0.0
  0
LINE
  5
AB
330
17
100
AcDbEntity
  8
0
100
AcDbLine
 10
548.269241
 20
-2207.666423
 30
0.0
 11
548.2692403070323
 21
-2207.6664223967477
 31
0.0
  0
LINE
  5
AC
330
17
100
AcDbEntity
  8
0
100
AcDbLine
 10
547.182811
 20
-2197.939694
 30
0.0
 11
547.1828105084936
 21
-2197.9396942560816
 31
0.0
  0
LINE
  5
AD
330
17
100
AcDbEntity
  8
0
100
AcDbLine
 10
549.103291
 20
-2192.880443
 30
0.0
 11
549.1032915084936
 21
-2192.880443256082
 31
0.0
  0
LINE
  5
AE
330
17
100
AcDbEntity
  8
0
100
AcDbLine
 10
559.907818
 20
-2190.120127
 30
0.0
 11
559.9078176015217
 21
-2190.120126950466
 31
0.0
  0
LINE
  5
AF
330
17
100
AcDbEntity
  8
0
100
AcDbLine
 10
563.692182
 20
-2187.479873
 30
0.0
 11
563.6921823984783
 21
-2187.4798730495345
 31
0.0
  0
LINE
  5
B0
330
17
100
AcDbEntity
  8
0
100
AcDbLine
 10
592.324784
 20
-2208.422367
 30
0.0
 11
592.3247840204117
 21
-2208.422367395314
 31
0.0
  0
LINE
  5
B1
330
17
100
AcDbEntity
  8
0
100
AcDbLine
 10
581.812354
 20
-2219.69041
 30
0.0
 11
581.8123540102058
 21
-2219.690409697657
 31
0.0
  0
LINE
  5
B2
330
17
100
AcDbEntity
  8
0
100
AcDbLine
 10
596.059359
 20
-2214.699906
 30
0.0
 11
596.0593594918066
 21
-2214.699906438632
 31
0.0
  0
LINE
  5
B3
330
17
100
AcDbEntity
  8
0
100
AcDbLine
 10
595.784185
 20
-2209.677288
 30
0.0
 11
595.7841851245904
 21
-2209.6772880719313
 31
0.0
  0
LINE
  5
B4
330
17
100
AcDbEntity
  8
0
100
AcDbLine
 10
599.751824
 20
-2278.123762
 30
0.0
 11
599.7518237065674
 21
-2278.1237619099616
 31
0.0
  0
LINE
  5
B5
330
17
100
AcDbEntity
  8
0
100
AcDbLine
 10
598.922935
 20
-2263.743701
 30
0.0
 11
598.9229351313481
 21
-2263.7437011992315
 31
0.0
  0
LINE
  5
B6
330
17
100
AcDbEntity
  8
0
100
AcDbLine
 10
595.975297
 20
-2279.151085
 30
0.0
 11
595.9752967874552
 21
-2279.151084923685
 31
0.0
  0
LINE
  5
B7
330
17
100
AcDbEntity
  8
0
100
AcDbLine
 10
585.484122
 20
-2258.681897
 30
0.0
 11
585.4841216062724
 21
-2258.681896538157
 31
0.0
  0
LINE
  5
B8
330
17
100
AcDbEntity
  8
0
100
AcDbLine
 10
585.254557
 20
-2258.38706
 30
0.0
 11
585.2545574059441
 21
-2258.3870596598817
 31
0.0
  0
LINE
  5
B9
330
17
100
AcDbEntity
  8
0
100
AcDbLine
 10
568.971722
 20
-2244.068609
 30
0.0
 11
568.9717221881118
 21
-2244.0686086802357
 31
0.0
  0
LINE
  5
BA
330
17
100
AcDbEntity
  8
0
100
AcDbLine
 10
581.68782
 20
-2219.855156
 30
0.0
 11
581.6878200479514
 21
-2219.8551556089415
 31
0.0
  0
LINE
  5
BB
330
17
100
AcDbEntity
  8
0
100
AcDbLine
 10
568.580971
 20
-2241.531865
 30
0.0
 11
568.5809710959028
 21
-2241.5318652178835
 31
0.0
  0
LINE
  5
BC
330
17
100
AcDbEntity
  8
0
100
AcDbLine
 10
581.066659
 20
-2262.121397
 30
0.0
 11
581.0666586062724
 21
-2262.121396538157
 31
0.0
  0
LINE
  5
BD
330
17
100
AcDbEntity
  8
0
100
AcDbLine
 10
592.307175
 20
-2284.052614
 30
0.0
 11
592.3071752125447
 21
-2284.052614076315
 31
0.0
  0
LINE
  5
BE
330
17
100
AcDbEntity
  8
0
100
AcDbLine
 10
590.809096
 20
-2286.944898
 30
0.0
 11
590.8090959268773
 21
-2286.944898084279
 31
0.0
  0
LINE
  5
BF
330
17
100
AcDbEntity
  8
0
100
AcDbLine
 10
546.4304
 20
-2293.259995
 30
0.0
 11
546.4303999634387
 21
-2293.2599945421393
 31
0.0
  0
LINE
  5
C0
330
17
100
AcDbEntity
  8
0
100
AcDbLine
 10
546.268808
 20
-2293.269754
 30
0.0
 11
546.2688078733299
 21
-2293.2697535016114
 31
0.0
  0
LINE
  5
C1
330
17
100
AcDbEntity
  8
0
100
AcDbLine
 10
518.35402
 20
-2292.691483
 30
0.0
 11
518.3540207466598
 21
-2292.6914830032224
 31
0.0
  0
LINE
  5
C2
330
17
100
AcDbEntity
  8
0
100
AcDbLine
 10
517.280618
 20
-2289.03144
 30
0.0
 11
517.28061797332
 21
-2289.0314406332222
 31
0.0
  0
LINE
  5
C3
330
17
100
AcDbEntity
  8
0
100
AcDbLine
 10
540.764745
 20
-2273.264416
 30
0.0
 11
540.76474451334
 21
-2273.264415683389
 31
0.0
  0
LINE
  5
C4
330
17
100
AcDbEntity
  8
0
100
AcDbLine
 10
540.961326
 20
-2273.091062
 30
0.0
 11
540.961325195343
 21
-2273.091062227935
 31
0.0
  0
LINE
  5
C5
330
17
100
AcDbEntity
  8
0
100
AcDbLine
 10
562.495528
 20
-2248.373326
 30
0.0
 11
562.4955276322435
 21
-2248.373326517811
 31
0.0
  0
LINE
  5
C6
330
17
100
AcDbEntity
  8
0
100
AcDbLine
 10
565.324227
 20
-2248.185186
 30
0.0
 11
565.3242268118881
 21
-2248.185186319764
 31
0.0
  0
LINE
  5
C7
330
17
100
AcDbEntity
  8
0
100
AcDbLine
 10
580.837095
 20
-2261.82656
 30
0.0
 11
580.8370944059441
 21
-2261.8265596598817
 31
0.0
  0
LINE
  5
C8
330
17
100
AcDbEntity
  8
0
100
AcDbLine
 10
558.398016
 20
-2243.942541
 30
0.0
 11
558.398015390686
 21
-2243.942541455869
 31
0.0
  0
LINE
  5
C9
330
17
100
AcDbEntity
  8
0
100
AcDbLine
 10
536.958362
 20
-2268.551751
 30
0.0
 11
536.958362195343
 21
-2268.551751227935
 31
0.0
  0
LINE
  5
CA
330
17
100
AcDbEntity
  8
0
100
AcDbLine
 10
536.761782
 20
-2268.725105
 30
0.0
 11
536.7617815133401
 21
-2268.725104683389
 31
0.0
  0
LINE
  5
CB
330
17
100
AcDbEntity
  8
0
100
AcDbLine
 10
515.931277
 20
-2282.710512
 30
0.0
 11
515.93127702668
 21
-2282.7105113667776
 31
0.0
  0
LINE
  5
CC
330
17
100
AcDbEntity
  8
0
100
AcDbLine
 10
512.957974
 20
-2280.311082
 30
0.0
 11
512.9579737429949
 21
-2280.3110822419117
 31
0.0
  0
LINE
  5
CD
330
17
100
AcDbEntity
  8
0
100
AcDbLine
 10
516.684739
 20
-2270.938271
 30
0.0
 11
516.6847388779461
 21
-2270.9382711047374
 31
0.0
  0
LINE
  5
CE
330
17
100
AcDbEntity
  8
0
100
AcDbLine
 10
539.215763
 20
-2210.414462
 30
0.0
 11
539.2157631319978
 21
-2210.414461808243
 31
0.0
  0
LINE
  5
CF
330
17
100
AcDbEntity
  8
0
100
AcDbLine
 10
534.720883
 20
-2223.679801
 30
0.0
 11
534.7208830659989
 21
-2223.6798009041217
 31
0.0
  0
LINE
  5
D0
330
17
100
AcDbEntity
  8
0
100
AcDbLine
 10
546.569603
 20
-2223.238437
 30
0.0
 11
546.5696026092463
 21
-2223.238437131735
 31
0.0
  0
LINE
  5
D1
330
17
100
AcDbEntity
  8
0
100
AcDbLine
 10
543.037011
 20
-2210.52102
 30
0.0
 11
543.0370117815073
 21
-2210.521019736531
 31
0.0
  0
LINE
  5
D2
330
17
100
AcDbEntity
  8
0
100
AcDbLine
 10
546.698025
 20
-2223.520898
 30
0.0
 11
546.6980244305814
 21
-2223.5208983718726
 31
0.0
  0
LINE
  5
D3
330
17
100
AcDbEntity
  8
0
100
AcDbLine
 10
558.560223
 20
-2241.52857
 30
0.0
 11
558.5602221388373
 21
-2241.5285702562555
 31
0.0
  0
LINE
  5
D4
330
17
100
AcDbEntity
  8
0
100
AcDbLine
 10
601.440484
 20
-2212.61244
 30
0.0
 11
601.4404846096114
 21
-2212.6124393466644
 31
0.0
  0
LINE
  5
D5
330
17
100
AcDbEntity
  8
0
100
AcDbLine
 10
600.29123
 20
-2182.224415
 30
0.0
 11
600.2912292304806
 21
-2182.224415367333
 31
0.0
  0
LINE
  5
D6
330
17
100
AcDbEntity
  8
0
100
AcDbLine
 10
603.861203
 20
-2264.266504
 30
0.0
 11
603.8612035417816
 21
-2264.266503787641
 31
0.0
  0
LINE
  5
D7
330
17
100
AcDbEntity
  8
0
100
AcDbLine
 10
604.412073
 20
-2273.823314
 30
0.0
 11
604.4120729073119
 21
-2273.8233135852497
 31
0.0
  0
LINE
  5
D8
330
17
100
AcDbEntity
  8
0
100
AcDbLine
 10
591.536289
 20
-2291.386751
 30
0.0
 11
591.5362891096838
 21
-2291.386751373582
 31
0.0
  0
LINE
  5
D9
330
17
100
AcDbEntity
  8
0
100
AcDbLine
 10
546.702565
 20
-2297.766598
 30
0.0
 11
546.7025649634387
 21
-2297.7665985421395
 31
0.0
  0
LINE
  5
DA
330
17
100
AcDbEntity
  8
0
100
AcDbLine
 10
546.540973
 20
-2297.776357
 30
0.0
 11
546.5409728733299
 21
-2297.7763575016115
 31
0.0
  0
LINE
  5
DB
330
17
100
AcDbEntity
  8
0
100
AcDbLine
 10
510.906948
 20
-2297.038178
 30
0.0
 11
510.90694838001025
 21
-2297.038177495166
 31
0.0
  0
LINE
  5
DC
330
17
100
AcDbEntity
  8
0
100
AcDbLine
 10
504.691605
 20
-2285.132556
 30
0.0
 11
504.6916053661618
 21
-2285.132555685788
 31
0.0
  0
LINE
  5
DD
330
17
100
AcDbEntity
  8
0
100
AcDbLine
 10
511.392464
 20
-2268.279901
 30
0.0
 11
511.392464877946
 21
-2268.2799011047373
 31
0.0
  0
LINE
  5
DE
330
17
100
AcDbEntity
  8
0
100
AcDbLine
 10
528.990847
 20
-2222.205765
 30
0.0
 11
528.9908470659989
 21
-2222.2057649041217
 31
0.0
  0
LINE
  5
DF
330
17
100
AcDbEntity
  8
0
100
AcDbLine
 10
542.730158
 20
-2181.658158
 30
0.0
 11
542.7301581319979
 21
-2181.658157808243
 31
0.0
  0
LINE
  5
E0
330
17
100
AcDbEntity
  8
0
100
AcDbLine
 10
560.425776
 20
-2178.763785
 30
0.0
 11
560.4257753160416
 21
-2178.7637853873625
 31
0.0
  0
LINE
  5
E1
330
17
100
AcDbEntity
  8
0
100
AcDbLine
 10
565.025289
 20
-2171.523465
 30
0.0
 11
565.0252893160416
 21
-2171.523465387362
 31
0.0
  0
LINE
  5
E2
330
17
100
AcDbEntity
  8
0
100
AcDbLine
 10
577.674711
 20
-2171.523465
 30
0.0
 11
577.6747106839584
 21
-2171.523465387362
 31
0.0
  0
LINE
  5
E3
330
17
100
AcDbEntity
  8
0
100
AcDbLine
 10
582.274224
 20
-2178.763785
 30
0.0
 11
582.2742246839584
 21
-2178.7637853873625
 31
0.0
  0
LINE
  5
E4
330
17
100
AcDbEntity
  8
0
100
AcDbLine
 10
528.9532615836064
 20
-2222.352379332082
 30
0.0
 11
528.9532617088495
 21
-2222.352379335969
 31
0.0
  0
LINE
  5
E5
330
17
100
AcDbEntity
  8
0
100
AcDbLine
 10
534.6838795350324
 20
-2223.823159163345
 30
0.0
 11
534.683879472645
 21
-2223.8231587366463
 31
0.0
  0
LINE
  5
E6
330
17
100
AcDbEntity
  8
0
100
AcDbLine
 10
516.7617882999072
 20
-2270.784517054692
 30
0.0
 11
516.7617878958032
 21
-2270.784517017778
 31
0.0
  0
LINE
  5
E7
330
17
100
AcDbEntity
  8
0
100
AcDbLine
 10
511.47153295548975
 20
-2268.122873404527
 30
0.0
 11
511.47153226036716
 21
-2268.122873121273
 31
0.0
  0
LINE
  5
E8
330
17
100
AcDbEntity
  8
0
100
AcDbLine
 10
576.4090421747595
 20
-2171.1528919603875
 30
0.0
 11
576.4090420928034
 21
-2171.1528923870487
 31
0.0
  0
LINE
  5
E9
330
17
100
AcDbEntity
  8
0
100
AcDbLine
 10
566.2909578252405
 20
-2171.1528919603875
 30
0.0
 11
566.2909579071967
 21
-2171.1528923870487
 31
0.0
  0
LINE
  5
EA
330
17
100
AcDbEntity
  8
0
100
AcDbLine
 10
560.9642002852336
 20
-2166.282689196494
 30
0.0
 11
560.9642005771962
 21
-2166.282689642069
 31
0.0
  0
LINE
  5
EB
330
17
100
AcDbEntity
  8
0
100
AcDbLine
 10
581.7357997147664
 20
-2166.282689196494
 30
0.0
 11
581.7357994228039
 21
-2166.282689642069
 31
0.0
  0
LINE
  5
EC
330
17
100
AcDbEntity
  8
0
100
AcDbLine
 10
595.4719097866242
 20
-2224.0553024059172
 30
0.0
 11
595.471909059204
 21
-2224.055302001039
 31
0.0
  0
LINE
  5
ED
330
17
100
AcDbEntity
  8
0
100
AcDbLine
 10
597.2404667988997
 20
-2254.3475890838745
 30
0.0
 11
597.240467699357
 21
-2254.347589078697
 31
0.0
  0
LINE
  5
EE
330
17
100
AcDbEntity
  8
0
100
AcDbLine
 10
600.5299925944172
 20
-2222.740601396127
 30
0.0
 11
600.5299916936486
 21
-2222.7406016645136
 31
0.0
  0
LINE
  5
EF
330
17
100
AcDbEntity
  8
0
100
AcDbLine
 10
601.8755205747972
 20
-2253.426144720718
 30
0.0
 11
601.8755214185059
 21
-2253.4261448077314
 31
0.0
  0
LINE
  5
F0
330
17
100
AcDbEntity
  8
0
100
AcDbLine
 10
608.9102917824841
 20
-2282.9284154838115
 30
0.0
 11
608.9102921505879
 21
-2282.9284155112077
 31
0.0
  0
LINE
  5
F1
330
17
100
AcDbEntity
  8
0
100
AcDbLine
 10
594.7290384590035
 20
-2293.2050883495367
 30
0.0
 11
594.7290385136655
 21
-2293.205088883488
 31
0.0
  0
LINE
  5
F2
330
17
100
AcDbEntity
  8
0
100
AcDbLine
 10
508.0377057017365
 20
-2298.9791685680234
 30
0.0
 11
508.0377048947904
 21
-2298.9791692959293
 31
0.0
  0
LINE
  5
F3
330
17
100
AcDbEntity
  8
0
100
AcDbLine
 10
501.3320100611226
 20
-2286.9691081896804
 30
0.0
 11
501.33201031295914
 21
-2286.9691072701066
 31
0.0
  0
ENDSEC
  0
SECTION
  2
OBJECTS
  0
DICTIONARY
  5
A
330
0
100
AcDbDictionary
280
0
281
1
  3
ACAD_COLOR
350
B
  3
ACAD_GROUP
350
C
  3
ACAD_LAYOUT
350
D
  3
ACAD_MATERIAL
350
E
  3
ACAD_MLEADERSTYLE
350
F
  3
ACAD_MLINESTYLE
350
10
  3
ACAD_PLOTSETTINGS
350
11
  3
ACAD_PLOTSTYLENAME
350
12
  3
ACAD_SCALELIST
350
14
  3
ACAD_TABLESTYLE
350
15
  3
ACAD_VISUALSTYLE
350
16
  3
EZDXF_META
350
2D
  0
DICTIONARY
  5
B
330
A
100
AcDbDictionary
280
0
281
1
  0
DICTIONARY
  5
C
330
A
100
AcDbDictionary
280
0
281
1
  0
DICTIONARY
  5
D
330
A
100
AcDbDictionary
280
0
281
1
  3
Model
350
1A
  3
Layout1
350
1E
  0
DICTIONARY
  5
E
330
A
100
AcDbDictionary
280
0
281
1
  3
ByBlock
350
1F
  3
ByLayer
350
20
  3
Global
350
21
  0
DICTIONARY
  5
F
330
A
100
AcDbDictionary
280
0
281
1
  3
Standard
350
2C
  0
DICTIONARY
  5
10
330
A
100
AcDbDictionary
280
0
281
1
  3
Standard
350
22
  0
DICTIONARY
  5
11
330
A
100
AcDbDictionary
280
0
281
1
  0
ACDBDICTIONARYWDFLT
  5
12
330
A
100
AcDbDictionary
280
0
281
1
  3
Normal
350
13
100
AcDbDictionaryWithDefault
340
13
  0
ACDBPLACEHOLDER
  5
13
330
12
  0
DICTIONARY
  5
14
330
A
100
AcDbDictionary
280
0
281
1
  0
DICTIONARY
  5
15
330
A
100
AcDbDictionary
280
0
281
1
  0
DICTIONARY
  5
16
330
A
100
AcDbDictionary
280
0
281
1
  0
LAYOUT
  5
1A
330
D
100
AcDbPlotSettings
  1

  4
A3
  6

 40
7.5
 41
20.0
 42
7.5
 43
20.0
 44
420.0
 45
297.0
 46
0.0
 47
0.0
 48
0.0
 49
0.0
140
0.0
141
0.0
142
1.0
143
1.0
 70
1024
 72
1
 73
0
 74
5
  7

 75
16
 76
0
 77
2
 78
300
147
1.0
148
0.0
149
0.0
100
AcDbLayout
  1
Model
 70
1
 71
0
 10
0.0
 20
0.0
 11
420.0
 21
297.0
 12
0.0
 22
0.0
 32
0.0
 14
1e+20
 24
1e+20
 34
1e+20
 15
-1e+20
 25
-1e+20
 35
-1e+20
146
0.0
 13
0.0
 23
0.0
 33
0.0
 16
1.0
 26
0.0
 36
0.0
 17
0.0
 27
1.0
 37
0.0
 76
1
330
17
  0
LAYOUT
  5
1E
330
D
100
AcDbPlotSettings
  1

  4
A3
  6

 40
7.5
 41
20.0
 42
7.5
 43
20.0
 44
420.0
 45
297.0
 46
0.0
 47
0.0
 48
0.0
 49
0.0
140
0.0
141
0.0
142
1.0
143
1.0
 70
0
 72
1
 73
0
 74
5
  7

 75
16
 76
0
 77
2
 78
300
147
1.0
148
0.0
149
0.0
100
AcDbLayout
  1
Layout1
 70
1
 71
1
 10
0.0
 20
0.0
 11
420.0
 21
297.0
 12
0.0
 22
0.0
 32
0.0
 14
1e+20
 24
1e+20
 34
1e+20
 15
-1e+20
 25
-1e+20
 35
-1e+20
146
0.0
 13
0.0
 23
0.0
 33
0.0
 16
1.0
 26
0.0
 36
0.0
 17
0.0
 27
1.0
 37
0.0
 76
1
330
1B
  0
MATERIAL
  5
1F
102
{ACAD_REACTORS
330
E
102
}
330
E
100
AcDbMaterial
  1
ByBlock
  2

 70
0
 40
1.0
 71
1
 41
1.0
 91
-1023410177
 42
1.0
 72
1
  3

 73
1
 74
1
 75
1
 44
0.5
 73
0
 45
1.0
 46
1.0
 77
1
  4

 78
1
 79
1
170
1
 48
1.0
171
1
  6

172
1
173
1
174
1
140
1.0
141
1.0
175
1
  7

176
1
177
1
178
1
143
1.0
179
1
  8

270
1
271
1
272
1
145
1.0
146
1.0
273
1
  9

274
1
275
1
276
1
 42
1.0
 72
1
  3

 73
1
 74
1
 75
1
 94
63
  0
MATERIAL
  5
20
102
{ACAD_REACTORS
330
E
102
}
330
E
100
AcDbMaterial
  1
ByLayer
  2

 70
0
 40
1.0
 71
1
 41
1.0
 91
-1023410177
 42
1.0
 72
1
  3

 73
1
 74
1
 75
1
 44
0.5
 73
0
 45
1.0
 46
1.0
 77
1
  4

 78
1
 79
1
170
1
 48
1.0
171
1
  6

172
1
173
1
174
1
140
1.0
141
1.0
175
1
  7

176
1
177
1
178
1
143
1.0
179
1
  8

270
1
271
1
272
1
145
1.0
146
1.0
273
1
  9

274
1
275
1
276
1
 42
1.0
 72
1
  3

 73
1
 74
1
 75
1
 94
63
  0
MATERIAL
  5
21
102
{ACAD_REACTORS
330
E
102
}
330
E
100
AcDbMaterial
  1
Global
  2

 70
0
 40
1.0
 71
1
 41
1.0
 91
-1023410177
 42
1.0
 72
1
  3

 73
1
 74
1
 75
1
 44
0.5
 73
0
 45
1.0
 46
1.0
 77
1
  4

 78
1
 79
1
170
1
 48
1.0
171
1
  6

172
1
173
1
174
1
140
1.0
141
1.0
175
1
  7

176
1
177
1
178
1
143
1.0
179
1
  8

270
1
271
1
272
1
145
1.0
146
1.0
273
1
  9

274
1
275
1
276
1
 42
1.0
 72
1
  3

 73
1
 74
1
 75
1
 94
63
  0
MLINESTYLE
  5
22
102
{ACAD_REACTORS
330
10
102
}
330
10
100
AcDbMlineStyle
  2
Standard
 70
0
  3

 62
256
 51
90.0
 52
90.0
 71
2
 49
0.5
 62
256
  6
BYLAYER
 49
-0.5
 62
256
  6
BYLAYER
  0
MLEADERSTYLE
  5
2C
102
{ACAD_REACTORS
330
F
102
}
330
F
100
AcDbMLeaderStyle
179
2
170
2
171
1
172
0
 90
2
 40
0.0
 41
0.0
173
1
 91
-1056964608
 92
-2
290
1
 42
2.0
291
1
 43
8.0
  3
Standard
 44
4.0
300

342
29
174
1
175
1
176
0
178
1
 93
-1056964608
 45
4.0
292
0
297
0
 46
4.0
 94
-1056964608
 47
1.0
 49
1.0
140
1.0
294
1
141
0.0
177
0
142
1.0
295
0
296
0
143
3.75
271
0
272
9
273
9
  0
DICTIONARY
  5
2D
330
A
100
AcDbDictionary
280
1
281
1
  3
CREATED_BY_EZDXF
350
2E
  3
WRITTEN_BY_EZDXF
350
F6
  0
DICTIONARYVAR
  5
2E
330
2D
100
DictionaryVariables
280
0
  1
1.4.0 @ 2025-03-28T11:42:15.178950+00:00
  0
DICTIONARYVAR
  5
F6
330
2D
100
DictionaryVariables
280
0
  1
1.4.0 @ 2025-03-28T11:42:15.222246+00:00
  0
ENDSEC
  0
EOF
