  0
SECTION
  2
HEADER
  9
$ACADVER
  1
AC1027
  9
$ACADMAINTVER
 70
105
  9
$DWGCODEPAGE
  3
ANSI_1252
  9
$LASTSAVEDBY
  1
ezdxf
  9
$REQUIREDVERSIONS
160
0
  9
$INSBASE
 10
0.0
 20
0.0
 30
0.0
  9
$EXTMIN
 10
1e+20
 20
1e+20
 30
1e+20
  9
$EXTMAX
 10
-1e+20
 20
-1e+20
 30
-1e+20
  9
$LIMMIN
 10
0.0
 20
0.0
  9
$LIMMAX
 10
420.0
 20
297.0
  9
$ORTHOMODE
 70
0
  9
$REGENMODE
 70
1
  9
$FILLMODE
 70
1
  9
$QTEXTMODE
 70
0
  9
$MIRRTEXT
 70
1
  9
$LTSCALE
 40
1.0
  9
$ATTMODE
 70
1
  9
$TEXTSIZE
 40
2.5
  9
$TRACEWID
 40
1.0
  9
$TEXTSTYLE
  7
Standard
  9
$CLAYER
  8
0
  9
$CELTYPE
  6
ByLayer
  9
$CECOLOR
 62
256
  9
$CELTSCALE
 40
1.0
  9
$DISPSILH
 70
0
  9
$DIMSCALE
 40
1.0
  9
$DIMASZ
 40
2.5
  9
$DIMEXO
 40
0.625
  9
$DIMDLI
 40
3.75
  9
$DIMRND
 40
0.0
  9
$DIMDLE
 40
0.0
  9
$DIMEXE
 40
1.25
  9
$DIMTP
 40
0.0
  9
$DIMTM
 40
0.0
  9
$DIMTXT
 40
2.5
  9
$DIMCEN
 40
2.5
  9
$DIMTSZ
 40
0.0
  9
$DIMTOL
 70
0
  9
$DIMLIM
 70
0
  9
$DIMTIH
 70
0
  9
$DIMTOH
 70
0
  9
$DIMSE1
 70
0
  9
$DIMSE2
 70
0
  9
$DIMTAD
 70
1
  9
$DIMZIN
 70
8
  9
$DIMBLK
  1

  9
$DIMASO
 70
1
  9
$DIMSHO
 70
1
  9
$DIMPOST
  1

  9
$DIMAPOST
  1

  9
$DIMALT
 70
0
  9
$DIMALTD
 70
3
  9
$DIMALTF
 40
0.03937007874
  9
$DIMLFAC
 40
1.0
  9
$DIMTOFL
 70
1
  9
$DIMTVP
 40
0.0
  9
$DIMTIX
 70
0
  9
$DIMSOXD
 70
0
  9
$DIMSAH
 70
0
  9
$DIMBLK1
  1

  9
$DIMBLK2
  1

  9
$DIMSTYLE
  2
ISO-25
  9
$DIMCLRD
 70
0
  9
$DIMCLRE
 70
0
  9
$DIMCLRT
 70
0
  9
$DIMTFAC
 40
1.0
  9
$DIMGAP
 40
0.625
  9
$DIMJUST
 70
0
  9
$DIMSD1
 70
0
  9
$DIMSD2
 70
0
  9
$DIMTOLJ
 70
0
  9
$DIMTZIN
 70
8
  9
$DIMALTZ
 70
0
  9
$DIMALTTZ
 70
0
  9
$DIMUPT
 70
0
  9
$DIMDEC
 70
2
  9
$DIMTDEC
 70
2
  9
$DIMALTU
 70
2
  9
$DIMALTTD
 70
3
  9
$DIMTXSTY
  7
Standard
  9
$DIMAUNIT
 70
0
  9
$DIMADEC
 70
0
  9
$DIMALTRND
 40
0.0
  9
$DIMAZIN
 70
0
  9
$DIMDSEP
 70
44
  9
$DIMATFIT
 70
3
  9
$DIMFRAC
 70
0
  9
$DIMLDRBLK
  1

  9
$DIMLUNIT
 70
2
  9
$DIMLWD
 70
-2
  9
$DIMLWE
 70
-2
  9
$DIMTMOVE
 70
0
  9
$DIMFXL
 40
1.0
  9
$DIMFXLON
 70
0
  9
$DIMJOGANG
 40
0.785398163397
  9
$DIMTFILL
 70
0
  9
$DIMTFILLCLR
 70
0
  9
$DIMARCSYM
 70
0
  9
$DIMLTYPE
  6

  9
$DIMLTEX1
  6

  9
$DIMLTEX2
  6

  9
$DIMTXTDIRECTION
 70
0
  9
$LUNITS
 70
2
  9
$LUPREC
 70
4
  9
$SKETCHINC
 40
1.0
  9
$FILLETRAD
 40
10.0
  9
$AUNITS
 70
0
  9
$AUPREC
 70
2
  9
$MENU
  1
.
  9
$ELEVATION
 40
0.0
  9
$PELEVATION
 40
0.0
  9
$THICKNESS
 40
0.0
  9
$LIMCHECK
 70
0
  9
$CHAMFERA
 40
0.0
  9
$CHAMFERB
 40
0.0
  9
$CHAMFERC
 40
0.0
  9
$CHAMFERD
 40
0.0
  9
$SKPOLY
 70
0
  9
$TDCREATE
 40
2460756.5617939816
  9
$TDUCREATE
 40
2458532.153996898
  9
$TDUPDATE
 40
2460756.5617939816
  9
$TDUUPDATE
 40
2458532.1544311
  9
$TDINDWG
 40
0.0
  9
$TDUSRTIMER
 40
0.0
  9
$USRTIMER
 70
1
  9
$ANGBASE
 50
0.0
  9
$ANGDIR
 70
0
  9
$PDMODE
 70
0
  9
$PDSIZE
 40
0.0
  9
$PLINEWID
 40
0.0
  9
$SPLFRAME
 70
0
  9
$SPLINETYPE
 70
6
  9
$SPLINESEGS
 70
8
  9
$HANDSEED
  5
D1
  9
$SURFTAB1
 70
6
  9
$SURFTAB2
 70
6
  9
$SURFTYPE
 70
6
  9
$SURFU
 70
6
  9
$SURFV
 70
6
  9
$UCSBASE
  2

  9
$UCSNAME
  2

  9
$UCSORG
 10
0.0
 20
0.0
 30
0.0
  9
$UCSXDIR
 10
1.0
 20
0.0
 30
0.0
  9
$UCSYDIR
 10
0.0
 20
1.0
 30
0.0
  9
$UCSORTHOREF
  2

  9
$UCSORTHOVIEW
 70
0
  9
$UCSORGTOP
 10
0.0
 20
0.0
 30
0.0
  9
$UCSORGBOTTOM
 10
0.0
 20
0.0
 30
0.0
  9
$UCSORGLEFT
 10
0.0
 20
0.0
 30
0.0
  9
$UCSORGRIGHT
 10
0.0
 20
0.0
 30
0.0
  9
$UCSORGFRONT
 10
0.0
 20
0.0
 30
0.0
  9
$UCSORGBACK
 10
0.0
 20
0.0
 30
0.0
  9
$PUCSBASE
  2

  9
$PUCSNAME
  2

  9
$PUCSORG
 10
0.0
 20
0.0
 30
0.0
  9
$PUCSXDIR
 10
1.0
 20
0.0
 30
0.0
  9
$PUCSYDIR
 10
0.0
 20
1.0
 30
0.0
  9
$PUCSORTHOREF
  2

  9
$PUCSORTHOVIEW
 70
0
  9
$PUCSORGTOP
 10
0.0
 20
0.0
 30
0.0
  9
$PUCSORGBOTTOM
 10
0.0
 20
0.0
 30
0.0
  9
$PUCSORGLEFT
 10
0.0
 20
0.0
 30
0.0
  9
$PUCSORGRIGHT
 10
0.0
 20
0.0
 30
0.0
  9
$PUCSORGFRONT
 10
0.0
 20
0.0
 30
0.0
  9
$PUCSORGBACK
 10
0.0
 20
0.0
 30
0.0
  9
$USERI1
 70
0
  9
$USERI2
 70
0
  9
$USERI3
 70
0
  9
$USERI4
 70
0
  9
$USERI5
 70
0
  9
$USERR1
 40
0.0
  9
$USERR2
 40
0.0
  9
$USERR3
 40
0.0
  9
$USERR4
 40
0.0
  9
$USERR5
 40
0.0
  9
$WORLDVIEW
 70
1
  9
$SHADEDGE
 70
3
  9
$SHADEDIF
 70
70
  9
$TILEMODE
 70
1
  9
$MAXACTVP
 70
64
  9
$PINSBASE
 10
0.0
 20
0.0
 30
0.0
  9
$PLIMCHECK
 70
0
  9
$PEXTMIN
 10
1e+20
 20
1e+20
 30
1e+20
  9
$PEXTMAX
 10
-1e+20
 20
-1e+20
 30
-1e+20
  9
$PLIMMIN
 10
0.0
 20
0.0
  9
$PLIMMAX
 10
420.0
 20
297.0
  9
$UNITMODE
 70
0
  9
$VISRETAIN
 70
1
  9
$PLINEGEN
 70
0
  9
$PSLTSCALE
 70
1
  9
$TREEDEPTH
 70
3020
  9
$CMLSTYLE
  2
Standard
  9
$CMLJUST
 70
0
  9
$CMLSCALE
 40
20.0
  9
$PROXYGRAPHICS
 70
1
  9
$MEASUREMENT
 70
1
  9
$CELWEIGHT
370
-1
  9
$ENDCAPS
280
0
  9
$JOINSTYLE
280
0
  9
$LWDISPLAY
290
0
  9
$INSUNITS
 70
6
  9
$HYPERLINKBASE
  1

  9
$STYLESHEET
  1

  9
$XEDIT
290
1
  9
$CEPSNTYPE
380
0
  9
$PSTYLEMODE
290
1
  9
$FINGERPRINTGUID
  2
{063FFD84-84E7-4601-A018-A3C40147C957}
  9
$VERSIONGUID
  2
{477F0BD0-CB73-4DD0-8DE8-5CE03262799C}
  9
$EXTNAMES
290
1
  9
$PSVPSCALE
 40
0.0
  9
$OLESTARTUP
290
0
  9
$SORTENTS
280
127
  9
$INDEXCTL
280
0
  9
$HIDETEXT
280
1
  9
$XCLIPFRAME
280
1
  9
$HALOGAP
280
0
  9
$OBSCOLOR
 70
257
  9
$OBSLTYPE
280
0
  9
$INTERSECTIONDISPLAY
280
0
  9
$INTERSECTIONCOLOR
 70
257
  9
$DIMASSOC
280
2
  9
$PROJECTNAME
  1

  9
$CAMERADISPLAY
290
0
  9
$LENSLENGTH
 40
50.0
  9
$CAMERAHEIGHT
 40
0.0
  9
$STEPSPERSEC
 40
24.0
  9
$STEPSIZE
 40
100.0
  9
$3DDWFPREC
 40
2.0
  9
$PSOLWIDTH
 40
0.005
  9
$PSOLHEIGHT
 40
0.08
  9
$LOFTANG1
 40
1.570796326795
  9
$LOFTANG2
 40
1.570796326795
  9
$LOFTMAG1
 40
0.0
  9
$LOFTMAG2
 40
0.0
  9
$LOFTPARAM
 70
7
  9
$LOFTNORMALS
280
1
  9
$LATITUDE
 40
37.795
  9
$LONGITUDE
 40
-122.394
  9
$NORTHDIRECTION
 40
0.0
  9
$TIMEZONE
 70
-8000
  9
$LIGHTGLYPHDISPLAY
280
1
  9
$TILEMODELIGHTSYNCH
280
1
  9
$CMATERIAL
347
20
  9
$SOLIDHIST
280
0
  9
$SHOWHIST
280
1
  9
$DWFFRAME
280
2
  9
$DGNFRAME
280
2
  9
$REALWORLDSCALE
290
1
  9
$INTERFERECOLOR
 62
256
  9
$CSHADOW
280
0
  9
$SHADOWPLANELOCATION
 40
0.0
  0
ENDSEC
  0
SECTION
  2
CLASSES
  0
CLASS
  1
ACDBDICTIONARYWDFLT
  2
AcDbDictionaryWithDefault
  3
ObjectDBX Classes
 90
0
 91
0
280
0
281
0
  0
CLASS
  1
SUN
  2
AcDbSun
  3
SCENEOE
 90
1153
 91
0
280
0
281
0
  0
CLASS
  1
VISUALSTYLE
  2
AcDbVisualStyle
  3
ObjectDBX Classes
 90
4095
 91
0
280
0
281
0
  0
CLASS
  1
MATERIAL
  2
AcDbMaterial
  3
ObjectDBX Classes
 90
1153
 91
0
280
0
281
0
  0
CLASS
  1
SCALE
  2
AcDbScale
  3
ObjectDBX Classes
 90
1153
 91
0
280
0
281
0
  0
CLASS
  1
TABLESTYLE
  2
AcDbTableStyle
  3
ObjectDBX Classes
 90
4095
 91
0
280
0
281
0
  0
CLASS
  1
MLEADERSTYLE
  2
AcDbMLeaderStyle
  3
ACDB_MLEADERSTYLE_CLASS
 90
4095
 91
0
280
0
281
0
  0
CLASS
  1
DICTIONARYVAR
  2
AcDbDictionaryVar
  3
ObjectDBX Classes
 90
0
 91
0
280
0
281
0
  0
CLASS
  1
CELLSTYLEMAP
  2
AcDbCellStyleMap
  3
ObjectDBX Classes
 90
1152
 91
0
280
0
281
0
  0
CLASS
  1
MENTALRAYRENDERSETTINGS
  2
AcDbMentalRayRenderSettings
  3
SCENEOE
 90
1024
 91
0
280
0
281
0
  0
CLASS
  1
ACDBDETAILVIEWSTYLE
  2
AcDbDetailViewStyle
  3
ObjectDBX Classes
 90
1025
 91
0
280
0
281
0
  0
CLASS
  1
ACDBSECTIONVIEWSTYLE
  2
AcDbSectionViewStyle
  3
ObjectDBX Classes
 90
1025
 91
0
280
0
281
0
  0
CLASS
  1
RASTERVARIABLES
  2
AcDbRasterVariables
  3
ISM
 90
0
 91
0
280
0
281
0
  0
CLASS
  1
LAYOUT
  2
AcDbLayout
  3
ObjectDBX Classes
 90
0
 91
0
280
0
281
0
  0
CLASS
  1
ACDBPLACEHOLDER
  2
AcDbPlaceHolder
  3
ObjectDBX Classes
 90
0
 91
0
280
0
281
0
  0
ENDSEC
  0
SECTION
  2
TABLES
  0
TABLE
  2
VPORT
  5
8
330
0
100
AcDbSymbolTable
 70
1
  0
VPORT
  5
23
330
8
100
AcDbSymbolTableRecord
100
AcDbViewportTableRecord
  2
*Active
 70
0
 10
0.0
 20
0.0
 11
1.0
 21
1.0
 12
0.0
 22
0.0
 13
0.0
 23
0.0
 14
0.5
 24
0.5
 15
0.5
 25
0.5
 16
0.0
 26
0.0
 36
1.0
 17
0.0
 27
0.0
 37
0.0
 40
1000.0
 41
1.34
 42
50.0
 43
0.0
 44
0.0
 50
0.0
 51
0.0
 71
0
 72
1000
 73
1
 74
3
 75
0
 76
0
 77
0
 78
0
281
0
 65
0
146
0.0
  0
ENDTAB
  0
TABLE
  2
LTYPE
  5
2
330
0
100
AcDbSymbolTable
 70
3
  0
LTYPE
  5
24
330
2
100
AcDbSymbolTableRecord
100
AcDbLinetypeTableRecord
  2
ByBlock
 70
0
  3

 72
65
 73
0
 40
0.0
  0
LTYPE
  5
25
330
2
100
AcDbSymbolTableRecord
100
AcDbLinetypeTableRecord
  2
ByLayer
 70
0
  3

 72
65
 73
0
 40
0.0
  0
LTYPE
  5
26
330
2
100
AcDbSymbolTableRecord
100
AcDbLinetypeTableRecord
  2
Continuous
 70
0
  3

 72
65
 73
0
 40
0.0
  0
ENDTAB
  0
TABLE
  2
LAYER
  5
1
330
0
100
AcDbSymbolTable
 70
2
  0
LAYER
  5
27
330
1
100
AcDbSymbolTableRecord
100
AcDbLayerTableRecord
  2
0
 70
0
 62
7
  6
Continuous
370
-3
390
13
347
21
  0
LAYER
  5
28
330
1
100
AcDbSymbolTableRecord
100
AcDbLayerTableRecord
  2
Defpoints
 70
0
 62
7
  6
Continuous
290
0
370
-3
390
13
347
21
  0
ENDTAB
  0
TABLE
  2
STYLE
  5
5
330
0
100
AcDbSymbolTable
 70
1
  0
STYLE
  5
29
330
5
100
AcDbSymbolTableRecord
100
AcDbTextStyleTableRecord
  2
Standard
 70
0
 40
0.0
 41
1.0
 50
0.0
 71
0
 42
2.5
  3
txt
  4

  0
ENDTAB
  0
TABLE
  2
VIEW
  5
7
330
0
100
AcDbSymbolTable
 70
0
  0
ENDTAB
  0
TABLE
  2
UCS
  5
6
330
0
100
AcDbSymbolTable
 70
0
  0
ENDTAB
  0
TABLE
  2
APPID
  5
3
330
0
100
AcDbSymbolTable
 70
3
  0
APPID
  5
2A
330
3
100
AcDbSymbolTableRecord
100
AcDbRegAppTableRecord
  2
ACAD
 70
0
  0
APPID
  5
CE
330
3
100
AcDbSymbolTableRecord
100
AcDbRegAppTableRecord
  2
HATCHBACKGROUNDCOLOR
 70
0
  0
APPID
  5
CF
330
3
100
AcDbSymbolTableRecord
100
AcDbRegAppTableRecord
  2
EZDXF
 70
0
  0
ENDTAB
  0
TABLE
  2
DIMSTYLE
  5
4
330
0
100
AcDbSymbolTable
 70
1
100
AcDbDimStyleTable
  0
DIMSTYLE
105
2B
330
4
100
AcDbSymbolTableRecord
100
AcDbDimStyleTableRecord
  2
Standard
 70
0
 40
1.0
 41
2.5
 42
0.625
 43
3.75
 44
1.25
 45
0.0
 46
0.0
 47
0.0
 48
0.0
 49
2.5
140
2.5
141
2.5
142
0.0
143
0.03937007874
144
1.0
145
0.0
146
1.0
147
0.625
148
0.0
 69
0
 70
0
 71
0
 72
0
 73
0
 74
0
 75
0
 76
0
 77
1
 78
8
 79
3
170
0
171
3
172
1
173
0
174
0
175
0
176
0
177
0
178
0
179
2
271
2
272
2
273
2
274
3
275
0
276
0
277
2
278
44
279
0
280
0
281
0
282
0
283
0
284
8
285
0
286
0
288
0
289
3
290
0
371
-2
372
-2
  0
ENDTAB
  0
TABLE
  2
BLOCK_RECORD
  5
9
330
0
100
AcDbSymbolTable
 70
2
  0
BLOCK_RECORD
  5
17
330
9
100
AcDbSymbolTableRecord
100
AcDbBlockTableRecord
  2
*Model_Space
340
1A
 70
0
280
1
281
0
  0
BLOCK_RECORD
  5
1B
330
9
100
AcDbSymbolTableRecord
100
AcDbBlockTableRecord
  2
*Paper_Space
340
1E
 70
0
280
1
281
0
  0
ENDTAB
  0
ENDSEC
  0
SECTION
  2
BLOCKS
  0
BLOCK
  5
18
330
17
100
AcDbEntity
  8
0
100
AcDbBlockBegin
  2
*Model_Space
 70
0
 10
0.0
 20
0.0
 30
0.0
  3
*Model_Space
  1

  0
ENDBLK
  5
19
330
17
100
AcDbEntity
  8
0
100
AcDbBlockEnd
  0
BLOCK
  5
1C
330
1B
100
AcDbEntity
  8
0
100
AcDbBlockBegin
  2
*Paper_Space
 70
0
 10
0.0
 20
0.0
 30
0.0
  3
*Paper_Space
  1

  0
ENDBLK
  5
1D
330
1B
100
AcDbEntity
  8
0
100
AcDbBlockEnd
  0
ENDSEC
  0
SECTION
  2
ENTITIES
  0
LINE
  5
2F
330
17
100
AcDbEntity
  8
0
100
AcDbLine
 10
270.495635
 20
167.385015
 30
0.0
 11
282.000195
 21
135.679535
 31
0.0
  0
LINE
  5
30
330
17
100
AcDbEntity
  8
0
100
AcDbLine
 10
282.000195
 20
135.679535
 30
0.0
 11
282.000195
 21
105.929535
 31
0.0
  0
LINE
  5
31
330
17
100
AcDbEntity
  8
0
100
AcDbLine
 10
282.000195
 20
105.929535
 30
0.0
 11
273.022573
 21
84.818097
 31
0.0
  0
LINE
  5
32
330
17
100
AcDbEntity
  8
0
100
AcDbLine
 10
259.580758
 20
74.135054
 30
0.0
 11
232.300195
 21
69.329535
 31
0.0
  0
LINE
  5
33
330
17
100
AcDbEntity
  8
0
100
AcDbLine
 10
232.300195
 20
69.329535
 30
0.0
 11
169.597182
 21
69.329535
 31
0.0
  0
LINE
  5
34
330
17
100
AcDbEntity
  8
0
100
AcDbLine
 10
166.61451
 20
70.123417
 30
0.0
 11
161.417523
 21
73.100857
 31
0.0
  0
LINE
  5
35
330
17
100
AcDbEntity
  8
0
100
AcDbLine
 10
158.400195
 20
78.306976
 30
0.0
 11
158.400195
 21
111.129535
 31
0.0
  0
LINE
  5
36
330
17
100
AcDbEntity
  8
0
100
AcDbLine
 10
158.400195
 20
111.129535
 30
0.0
 11
164.484356
 21
164.529535
 31
0.0
  0
LINE
  5
37
330
17
100
AcDbEntity
  8
0
100
AcDbLine
 10
164.484356
 20
164.529535
 30
0.0
 11
168.014708
 21
174.186681
 31
0.0
  0
LINE
  5
38
330
17
100
AcDbEntity
  8
0
100
AcDbLine
 10
172.710754
 20
177.469953
 30
0.0
 11
189.300195
 21
177.469953
 31
0.0
  0
LINE
  5
39
330
17
100
AcDbEntity
  8
0
100
AcDbLine
 10
197.700195
 20
172.929535
 30
0.0
 11
227.553338
 21
172.929535
 31
0.0
  0
LINE
  5
3A
330
17
100
AcDbEntity
  8
0
100
AcDbLine
 10
237.100203
 20
176.079535
 30
0.0
 11
248.630561
 21
176.079535
 31
0.0
  0
LINE
  5
3B
330
17
100
AcDbEntity
  8
0
100
AcDbLine
 10
252.601149
 20
174.118355
 30
0.0
 11
255.23299
 21
170.679535
 31
0.0
  0
LINE
  5
3C
330
17
100
AcDbEntity
  8
0
100
AcDbLine
 10
255.23299
 20
170.679535
 30
0.0
 11
265.795493
 21
170.679535
 31
0.0
  0
LINE
  5
3D
330
17
100
AcDbEntity
  8
0
100
AcDbLine
 10
276.748711
 20
121.585091
 30
0.0
 11
232.778451
 21
116.011943
 31
0.0
  0
LINE
  5
3E
330
17
100
AcDbEntity
  8
0
100
AcDbLine
 10
231.038671
 20
113.841086
 30
0.0
 11
234.681941
 21
74.990098
 31
0.0
  0
LINE
  5
3F
330
17
100
AcDbEntity
  8
0
100
AcDbLine
 10
237.020166
 20
73.207155
 30
0.0
 11
257.457076
 21
76.807152
 31
0.0
  0
LINE
  5
40
330
17
100
AcDbEntity
  8
0
100
AcDbLine
 10
270.898891
 20
87.490196
 30
0.0
 11
278.840691
 21
106.165835
 31
0.0
  0
LINE
  5
41
330
17
100
AcDbEntity
  8
0
100
AcDbLine
 10
279.000195
 20
106.948504
 30
0.0
 11
279.000195
 21
119.600965
 31
0.0
  0
LINE
  5
42
330
17
100
AcDbEntity
  8
0
100
AcDbLine
 10
234.761894
 20
171.406587
 30
0.0
 11
230.388453
 21
145.022014
 31
0.0
  0
LINE
  5
43
330
17
100
AcDbEntity
  8
0
100
AcDbLine
 10
230.388453
 20
145.022014
 30
0.0
 11
229.156037
 21
119.947448
 31
0.0
  0
LINE
  5
44
330
17
100
AcDbEntity
  8
0
100
AcDbLine
 10
231.40511
 20
117.865141
 30
0.0
 11
277.251679
 21
123.676107
 31
0.0
  0
LINE
  5
45
330
17
100
AcDbEntity
  8
0
100
AcDbLine
 10
279.000195
 20
125.660233
 30
0.0
 11
279.000195
 21
134.800434
 31
0.0
  0
LINE
  5
46
330
17
100
AcDbEntity
  8
0
100
AcDbLine
 10
278.880252
 20
135.482626
 30
0.0
 11
267.675549
 21
166.361727
 31
0.0
  0
LINE
  5
47
330
17
100
AcDbEntity
  8
0
100
AcDbLine
 10
265.795493
 20
167.679535
 30
0.0
 11
254.739064
 21
167.679535
 31
0.0
  0
LINE
  5
48
330
17
100
AcDbEntity
  8
0
100
AcDbLine
 10
253.150828
 20
168.464007
 30
0.0
 11
250.218796
 21
172.295063
 31
0.0
  0
LINE
  5
49
330
17
100
AcDbEntity
  8
0
100
AcDbLine
 10
248.630561
 20
173.079535
 30
0.0
 11
236.734972
 21
173.079535
 31
0.0
  0
LINE
  5
4A
330
17
100
AcDbEntity
  8
0
100
AcDbLine
 10
194.961691
 20
168.2771
 30
0.0
 11
190.658067
 21
143.889495
 31
0.0
  0
LINE
  5
4B
330
17
100
AcDbEntity
  8
0
100
AcDbLine
 10
190.658067
 20
143.889495
 30
0.0
 11
188.384608
 21
125.321652
 31
0.0
  0
LINE
  5
4C
330
17
100
AcDbEntity
  8
0
100
AcDbLine
 10
190.066643
 20
123.101693
 30
0.0
 11
223.520063
 21
117.971894
 31
0.0
  0
LINE
  5
4D
330
17
100
AcDbEntity
  8
0
100
AcDbLine
 10
225.820791
 20
119.850606
 30
0.0
 11
227.075405
 21
145.376821
 31
0.0
  0
LINE
  5
4E
330
17
100
AcDbEntity
  8
0
100
AcDbLine
 10
227.075405
 20
145.376821
 30
0.0
 11
230.759475
 21
167.602482
 31
0.0
  0
LINE
  5
4F
330
17
100
AcDbEntity
  8
0
100
AcDbLine
 10
228.786398
 20
169.929535
 30
0.0
 11
196.931259
 21
169.929535
 31
0.0
  0
LINE
  5
50
330
17
100
AcDbEntity
  8
0
100
AcDbLine
 10
190.292824
 20
174.469953
 30
0.0
 11
172.710754
 21
174.469953
 31
0.0
  0
LINE
  5
51
330
17
100
AcDbEntity
  8
0
100
AcDbLine
 10
170.832336
 20
173.156645
 30
0.0
 11
167.5064
 21
164.058671
 31
0.0
  0
LINE
  5
52
330
17
100
AcDbEntity
  8
0
100
AcDbLine
 10
167.397674
 20
163.598386
 30
0.0
 11
163.108637
 21
125.953986
 31
0.0
  0
LINE
  5
53
330
17
100
AcDbEntity
  8
0
100
AcDbLine
 10
165.009601
 20
123.729437
 30
0.0
 11
182.887472
 21
122.958368
 31
0.0
  0
LINE
  5
54
330
17
100
AcDbEntity
  8
0
100
AcDbLine
 10
184.958826
 20
124.713444
 30
0.0
 11
187.366936
 21
144.381017
 31
0.0
  0
LINE
  5
55
330
17
100
AcDbEntity
  8
0
100
AcDbLine
 10
187.366936
 20
144.381017
 30
0.0
 11
192.262392
 21
172.122388
 31
0.0
  0
LINE
  5
56
330
17
100
AcDbEntity
  8
0
100
AcDbLine
 10
191.713216
 20
74.571435
 30
0.0
 11
186.284674
 21
119.124469
 31
0.0
  0
LINE
  5
57
330
17
100
AcDbEntity
  8
0
100
AcDbLine
 10
184.385536
 20
120.880711
 30
0.0
 11
164.986374
 21
121.717393
 31
0.0
  0
LINE
  5
58
330
17
100
AcDbEntity
  8
0
100
AcDbLine
 10
162.900195
 20
119.719251
 30
0.0
 11
162.900195
 21
77.447601
 31
0.0
  0
LINE
  5
59
330
17
100
AcDbEntity
  8
0
100
AcDbLine
 10
164.408859
 20
74.844542
 30
0.0
 11
168.105846
 21
72.726476
 31
0.0
  0
LINE
  5
5A
330
17
100
AcDbEntity
  8
0
100
AcDbLine
 10
169.597182
 20
72.329535
 30
0.0
 11
189.727899
 21
72.329535
 31
0.0
  0
LINE
  5
5B
330
17
100
AcDbEntity
  8
0
100
AcDbLine
 10
230.566079
 20
74.516267
 30
0.0
 11
226.873632
 21
113.891668
 31
0.0
  0
LINE
  5
5C
330
17
100
AcDbEntity
  8
0
100
AcDbLine
 10
225.185508
 20
115.681829
 30
0.0
 11
192.8312
 21
120.643088
 31
0.0
  0
LINE
  5
5D
330
17
100
AcDbEntity
  8
0
100
AcDbLine
 10
190.542743
 20
118.424295
 30
0.0
 11
195.944921
 21
74.087635
 31
0.0
  0
LINE
  5
5E
330
17
100
AcDbEntity
  8
0
100
AcDbLine
 10
197.930238
 20
72.329535
 30
0.0
 11
228.574816
 21
72.329535
 31
0.0
  0
ARC
  5
5F
330
17
100
AcDbEntity
  8
0
100
AcDbCircle
 10
192.52806
 20
118.666195
 30
0.0
 40
2.0
100
AcDbArc
 50
90.0
 51
186.946932
  0
ARC
  5
60
330
17
100
AcDbEntity
  8
0
100
AcDbCircle
 10
164.900195
 20
119.719251
 30
0.0
 40
2.0
100
AcDbArc
 50
90.0
 51
180.0
  0
ARC
  5
61
330
17
100
AcDbEntity
  8
0
100
AcDbCircle
 10
182.973651
 20
124.95651
 30
0.0
 40
1.99999999999999
100
AcDbArc
 50
267.530375
 51
270.0
  0
ARC
  5
62
330
17
100
AcDbEntity
  8
0
100
AcDbCircle
 10
223.823202
 20
119.948788
 30
0.0
 40
2.00000000000002
100
AcDbArc
 50
261.282085
 51
270.0
  0
ARC
  5
63
330
17
100
AcDbEntity
  8
0
100
AcDbCircle
 10
231.153626
 20
119.849267
 30
0.0
 40
2.0
100
AcDbArc
 50
177.186175
 51
270.0
  0
ARC
  5
64
330
17
100
AcDbEntity
  8
0
100
AcDbCircle
 10
236.673205
 20
75.176829
 30
0.0
 40
2.0
100
AcDbArc
 50
185.357272
 51
270.0
  0
ARC
  5
65
330
17
100
AcDbEntity
  8
0
100
AcDbCircle
 10
277.000195
 20
119.600965
 30
0.0
 40
2.0
100
AcDbArc
 50
90.0
 51
97.223614
  0
ARC
  5
66
330
17
100
AcDbEntity
  8
0
100
AcDbCircle
 10
236.424119
 20
164.098595
 30
0.0
 40
12.0000000000003
100
AcDbArc
 50
86.770229
 51
90.0
  0
ARC
  5
67
330
17
100
AcDbEntity
  8
0
100
AcDbCircle
 10
256.458103
 20
91.862125
 30
0.0
 40
18.0000000000001
100
AcDbArc
 50
279.990263
 51
336.962417
  0
ARC
  5
68
330
17
100
AcDbEntity
  8
0
100
AcDbCircle
 10
169.597182
 20
75.329535
 30
0.0
 40
5.99999999999766
100
AcDbArc
 50
240.190886
 51
270.0
  0
ARC
  5
69
330
17
100
AcDbEntity
  8
0
100
AcDbCircle
 10
164.400195
 20
78.306976
 30
0.0
 40
6.00000000000023
100
AcDbArc
 50
180.0
 51
240.190886
  0
ARC
  5
6A
330
17
100
AcDbEntity
  8
0
100
AcDbCircle
 10
172.710754
 20
172.469953
 30
0.0
 40
4.99999999999954
100
AcDbArc
 50
90.0
 51
159.919161
  0
ARC
  5
6B
330
17
100
AcDbEntity
  8
0
100
AcDbCircle
 10
189.300195
 20
169.429535
 30
0.0
 40
8.04041831797659
100
AcDbArc
 50
33.215251
 51
90.0
  0
ARC
  5
6C
330
17
100
AcDbEntity
  8
0
100
AcDbCircle
 10
197.700195
 20
174.929535
 30
0.0
 40
1.99999999999954
100
AcDbArc
 50
213.215251
 51
270.0
  0
ARC
  5
6D
330
17
100
AcDbEntity
  8
0
100
AcDbCircle
 10
227.553338
 20
174.929535
 30
0.0
 40
1.99999999999986
100
AcDbArc
 50
270.0
 51
309.31824
  0
ARC
  5
6E
330
17
100
AcDbEntity
  8
0
100
AcDbCircle
 10
236.424119
 20
164.098595
 30
0.0
 40
12.0000000000003
100
AcDbArc
 50
90.0
 51
129.31824
  0
ARC
  5
6F
330
17
100
AcDbEntity
  8
0
100
AcDbCircle
 10
248.630561
 20
171.079535
 30
0.0
 40
4.99999999999999
100
AcDbArc
 50
37.428006
 51
90.0
  0
ARC
  5
70
330
17
100
AcDbEntity
  8
0
100
AcDbCircle
 10
265.795493
 20
165.679535
 30
0.0
 40
4.99999999999954
100
AcDbArc
 50
19.943665
 51
90.0
  0
ARC
  5
71
330
17
100
AcDbEntity
  8
0
100
AcDbCircle
 10
277.000195
 20
119.600965
 30
0.0
 40
2.0
100
AcDbArc
 50
0.0
 51
90.0
  0
ARC
  5
72
330
17
100
AcDbEntity
  8
0
100
AcDbCircle
 10
233.029935
 20
114.027817
 30
0.0
 40
2.0
100
AcDbArc
 50
97.223614
 51
185.357272
  0
ARC
  5
73
330
17
100
AcDbEntity
  8
0
100
AcDbCircle
 10
236.673205
 20
75.176829
 30
0.0
 40
2.0
100
AcDbArc
 50
270.0
 51
279.990263
  0
ARC
  5
74
330
17
100
AcDbEntity
  8
0
100
AcDbCircle
 10
254.334421
 20
94.534223
 30
0.0
 40
18.0000000000013
100
AcDbArc
 50
279.990263
 51
336.962417
  0
ARC
  5
75
330
17
100
AcDbEntity
  8
0
100
AcDbCircle
 10
277.000195
 20
106.948504
 30
0.0
 40
2.0
100
AcDbArc
 50
336.962417
 51
0.0
  0
ARC
  5
76
330
17
100
AcDbEntity
  8
0
100
AcDbCircle
 10
236.734972
 20
171.079535
 30
0.0
 40
2.0
100
AcDbArc
 50
90.0
 51
170.588368
  0
ARC
  5
77
330
17
100
AcDbEntity
  8
0
100
AcDbCircle
 10
231.153626
 20
119.849267
 30
0.0
 40
2.0
100
AcDbArc
 50
270.0
 51
277.223614
  0
ARC
  5
78
330
17
100
AcDbEntity
  8
0
100
AcDbCircle
 10
277.000195
 20
125.660233
 30
0.0
 40
2.0
100
AcDbArc
 50
277.223614
 51
0.0
  0
ARC
  5
79
330
17
100
AcDbEntity
  8
0
100
AcDbCircle
 10
277.000195
 20
134.800434
 30
0.0
 40
2.0
100
AcDbArc
 50
0.0
 51
19.943665
  0
ARC
  5
7A
330
17
100
AcDbEntity
  8
0
100
AcDbCircle
 10
265.795493
 20
165.679535
 30
0.0
 40
2.00000000000031
100
AcDbArc
 50
19.943665
 51
90.0
  0
ARC
  5
7B
330
17
100
AcDbEntity
  8
0
100
AcDbCircle
 10
254.739064
 20
169.679535
 30
0.0
 40
2.0
100
AcDbArc
 50
217.428006
 51
270.0
  0
ARC
  5
7C
330
17
100
AcDbEntity
  8
0
100
AcDbCircle
 10
248.630561
 20
171.079535
 30
0.0
 40
1.99999999992048
100
AcDbArc
 50
37.428006
 51
90.0
  0
ARC
  5
7D
330
17
100
AcDbEntity
  8
0
100
AcDbCircle
 10
196.931259
 20
167.929535
 30
0.0
 40
2.0
100
AcDbArc
 50
90.0
 51
169.992182
  0
ARC
  5
7E
330
17
100
AcDbEntity
  8
0
100
AcDbCircle
 10
190.369783
 20
125.078586
 30
0.0
 40
2.0
100
AcDbArc
 50
173.019413
 51
261.282085
  0
ARC
  5
7F
330
17
100
AcDbEntity
  8
0
100
AcDbCircle
 10
223.823202
 20
119.948788
 30
0.0
 40
2.00000000000002
100
AcDbArc
 50
270.0
 51
357.186175
  0
ARC
  5
80
330
17
100
AcDbEntity
  8
0
100
AcDbCircle
 10
228.786398
 20
167.929535
 30
0.0
 40
2.0
100
AcDbArc
 50
350.588368
 51
90.0
  0
ARC
  5
81
330
17
100
AcDbEntity
  8
0
100
AcDbCircle
 10
190.292824
 20
172.469953
 30
0.0
 40
2.0
100
AcDbArc
 50
349.992182
 51
90.0
  0
ARC
  5
82
330
17
100
AcDbEntity
  8
0
100
AcDbCircle
 10
172.710754
 20
172.469953
 30
0.0
 40
1.99999999999974
100
AcDbArc
 50
90.0
 51
159.919161
  0
ARC
  5
83
330
17
100
AcDbEntity
  8
0
100
AcDbCircle
 10
169.384818
 20
163.37198
 30
0.0
 40
2.0
100
AcDbArc
 50
159.919161
 51
173.5
  0
ARC
  5
84
330
17
100
AcDbEntity
  8
0
100
AcDbCircle
 10
165.09578
 20
125.727579
 30
0.0
 40
2.0
100
AcDbArc
 50
173.5
 51
267.530375
  0
ARC
  5
85
330
17
100
AcDbEntity
  8
0
100
AcDbCircle
 10
182.973651
 20
124.95651
 30
0.0
 40
1.99999999999999
100
AcDbArc
 50
270.0
 51
353.019413
  0
ARC
  5
86
330
17
100
AcDbEntity
  8
0
100
AcDbCircle
 10
189.727899
 20
74.329535
 30
0.0
 40
2.0
100
AcDbArc
 50
270.0
 51
6.946932
  0
ARC
  5
87
330
17
100
AcDbEntity
  8
0
100
AcDbCircle
 10
184.299357
 20
118.882569
 30
0.0
 40
2.0
100
AcDbArc
 50
6.946932
 51
87.530375
  0
ARC
  5
88
330
17
100
AcDbEntity
  8
0
100
AcDbCircle
 10
164.900195
 20
119.719251
 30
0.0
 40
2.0
100
AcDbArc
 50
87.530375
 51
90.0
  0
ARC
  5
89
330
17
100
AcDbEntity
  8
0
100
AcDbCircle
 10
165.900195
 20
77.447601
 30
0.0
 40
3.0
100
AcDbArc
 50
180.0
 51
240.190886
  0
ARC
  5
8A
330
17
100
AcDbEntity
  8
0
100
AcDbCircle
 10
169.597182
 20
75.329535
 30
0.0
 40
2.99999999998539
100
AcDbArc
 50
240.190886
 51
270.0
  0
ARC
  5
8B
330
17
100
AcDbEntity
  8
0
100
AcDbCircle
 10
228.574816
 20
74.329535
 30
0.0
 40
2.0
100
AcDbArc
 50
270.0
 51
5.357272
  0
ARC
  5
8C
330
17
100
AcDbEntity
  8
0
100
AcDbCircle
 10
224.882369
 20
113.704936
 30
0.0
 40
2.0
100
AcDbArc
 50
5.357272
 51
81.282085
  0
ARC
  5
8D
330
17
100
AcDbEntity
  8
0
100
AcDbCircle
 10
192.52806
 20
118.666195
 30
0.0
 40
2.0
100
AcDbArc
 50
81.282085
 51
90.0
  0
ARC
  5
8E
330
17
100
AcDbEntity
  8
0
100
AcDbCircle
 10
197.930238
 20
74.329535
 30
0.0
 40
2.0
100
AcDbArc
 50
186.946932
 51
270.0
  0
LINE
  5
8F
330
17
100
AcDbEntity
  8
0
100
AcDbLine
 10
270.495635
 20
167.385015
 30
0.0
 11
270.49563525699176
 21
167.38501521508198
 31
0.0
  0
LINE
  5
90
330
17
100
AcDbEntity
  8
0
100
AcDbLine
 10
273.022573
 20
84.818097
 30
0.0
 11
273.0225734168524
 21
84.81809775635415
 31
0.0
  0
LINE
  5
91
330
17
100
AcDbEntity
  8
0
100
AcDbLine
 10
259.580758
 20
74.135054
 30
0.0
 11
259.58075765672606
 21
74.1350545174067
 31
0.0
  0
LINE
  5
92
330
17
100
AcDbEntity
  8
0
100
AcDbLine
 10
169.597182
 20
69.329535
 30
0.0
 11
169.597182
 21
69.32953500000235
 31
0.0
  0
LINE
  5
93
330
17
100
AcDbEntity
  8
0
100
AcDbLine
 10
166.61451
 20
70.123417
 30
0.0
 11
166.614510062463
 21
70.12341666548232
 31
0.0
  0
LINE
  5
94
330
17
100
AcDbEntity
  8
0
100
AcDbLine
 10
161.417523
 20
73.100857
 30
0.0
 11
161.41752306246173
 21
73.10085766548009
 31
0.0
  0
LINE
  5
95
330
17
100
AcDbEntity
  8
0
100
AcDbLine
 10
158.400195
 20
78.306976
 30
0.0
 11
158.40019499999977
 21
78.306976
 31
0.0
  0
LINE
  5
96
330
17
100
AcDbEntity
  8
0
100
AcDbLine
 10
168.014708
 20
174.186681
 30
0.0
 11
168.01470836436837
 21
174.18668110545536
 31
0.0
  0
LINE
  5
97
330
17
100
AcDbEntity
  8
0
100
AcDbLine
 10
172.710754
 20
177.469953
 30
0.0
 11
172.710754
 21
177.46995299999955
 31
0.0
  0
LINE
  5
98
330
17
100
AcDbEntity
  8
0
100
AcDbLine
 10
189.300195
 20
177.469953
 30
0.0
 11
189.300195
 21
177.46995331797658
 31
0.0
  0
LINE
  5
99
330
17
100
AcDbEntity
  8
0
100
AcDbLine
 10
197.700195
 20
172.929535
 30
0.0
 11
197.700195
 21
172.92953500000044
 31
0.0
  0
LINE
  5
9A
330
17
100
AcDbEntity
  8
0
100
AcDbLine
 10
227.553338
 20
172.929535
 30
0.0
 11
227.553338
 21
172.92953500000013
 31
0.0
  0
LINE
  5
9B
330
17
100
AcDbEntity
  8
0
100
AcDbLine
 10
237.100203
 20
176.079535
 30
0.0
 11
237.10020247068687
 21
176.0795344932397
 31
0.0
  0
LINE
  5
9C
330
17
100
AcDbEntity
  8
0
100
AcDbLine
 10
252.601149
 20
174.118355
 30
0.0
 11
252.60114921105827
 21
174.11835537281
 31
0.0
  0
LINE
  5
9D
330
17
100
AcDbEntity
  8
0
100
AcDbLine
 10
265.795493
 20
170.679535
 30
0.0
 11
265.795493
 21
170.67953499999953
 31
0.0
  0
LINE
  5
9E
330
17
100
AcDbEntity
  8
0
100
AcDbLine
 10
276.748711
 20
121.585091
 30
0.0
 11
276.748710769811
 21
121.5850909239187
 31
0.0
  0
LINE
  5
9F
330
17
100
AcDbEntity
  8
0
100
AcDbLine
 10
232.778451
 20
116.011943
 30
0.0
 11
232.77845076981097
 21
116.01194292391868
 31
0.0
  0
LINE
  5
A0
330
17
100
AcDbEntity
  8
0
100
AcDbLine
 10
231.038671
 20
113.841086
 30
0.0
 11
231.03867126299997
 21
113.84108529484875
 31
0.0
  0
LINE
  5
A1
330
17
100
AcDbEntity
  8
0
100
AcDbLine
 10
234.681941
 20
74.990098
 30
0.0
 11
234.68194126299997
 21
74.99009729484875
 31
0.0
  0
LINE
  5
A2
330
17
100
AcDbEntity
  8
0
100
AcDbLine
 10
237.020166
 20
73.207155
 30
0.0
 11
237.02016662852512
 21
73.20715450193408
 31
0.0
  0
LINE
  5
A3
330
17
100
AcDbEntity
  8
0
100
AcDbLine
 10
257.457076
 20
76.807152
 30
0.0
 11
257.45707565672626
 21
76.80715251740553
 31
0.0
  0
LINE
  5
A4
330
17
100
AcDbEntity
  8
0
100
AcDbLine
 10
270.898891
 20
87.490196
 30
0.0
 11
270.89889141685353
 21
87.49019575635366
 31
0.0
  0
LINE
  5
A5
330
17
100
AcDbEntity
  8
0
100
AcDbLine
 10
278.840691
 20
106.165835
 30
0.0
 11
278.8406917129836
 21
106.16583430626157
 31
0.0
  0
LINE
  5
A6
330
17
100
AcDbEntity
  8
0
100
AcDbLine
 10
234.761894
 20
171.406587
 30
0.0
 11
234.76189403324324
 21
171.40658749899524
 31
0.0
  0
LINE
  5
A7
330
17
100
AcDbEntity
  8
0
100
AcDbLine
 10
229.156037
 20
119.947448
 30
0.0
 11
229.15603735756386
 21
119.94744854414213
 31
0.0
  0
LINE
  5
A8
330
17
100
AcDbEntity
  8
0
100
AcDbLine
 10
231.40511
 20
117.865141
 30
0.0
 11
231.40511023018902
 21
117.8651410760813
 31
0.0
  0
LINE
  5
A9
330
17
100
AcDbEntity
  8
0
100
AcDbLine
 10
277.251679
 20
123.676107
 30
0.0
 11
277.25167923018904
 21
123.67610707608131
 31
0.0
  0
LINE
  5
AA
330
17
100
AcDbEntity
  8
0
100
AcDbLine
 10
278.880252
 20
135.482626
 30
0.0
 11
278.8802519027969
 21
135.48262608603284
 31
0.0
  0
LINE
  5
AB
330
17
100
AcDbEntity
  8
0
100
AcDbLine
 10
267.675549
 20
166.361727
 30
0.0
 11
267.6755499027972
 21
166.36172708603291
 31
0.0
  0
LINE
  5
AC
330
17
100
AcDbEntity
  8
0
100
AcDbLine
 10
265.795493
 20
167.679535
 30
0.0
 11
265.795493
 21
167.6795350000003
 31
0.0
  0
LINE
  5
AD
330
17
100
AcDbEntity
  8
0
100
AcDbLine
 10
253.150828
 20
168.464007
 30
0.0
 11
253.1508287155767
 21
168.464006850876
 31
0.0
  0
LINE
  5
AE
330
17
100
AcDbEntity
  8
0
100
AcDbLine
 10
250.218796
 20
172.295063
 30
0.0
 11
250.21879628436017
 21
172.29506314907567
 31
0.0
  0
LINE
  5
AF
330
17
100
AcDbEntity
  8
0
100
AcDbLine
 10
248.630561
 20
173.079535
 30
0.0
 11
248.630561
 21
173.07953499992047
 31
0.0
  0
LINE
  5
B0
330
17
100
AcDbEntity
  8
0
100
AcDbLine
 10
194.961691
 20
168.2771
 30
0.0
 11
194.9616909008436
 21
168.2771001058224
 31
0.0
  0
LINE
  5
B1
330
17
100
AcDbEntity
  8
0
100
AcDbLine
 10
188.384608
 20
125.321652
 30
0.0
 11
188.38460822693378
 21
125.3216520823345
 31
0.0
  0
LINE
  5
B2
330
17
100
AcDbEntity
  8
0
100
AcDbLine
 10
190.066643
 20
123.101693
 30
0.0
 11
190.06664321819764
 21
123.10169291419875
 31
0.0
  0
LINE
  5
B3
330
17
100
AcDbEntity
  8
0
100
AcDbLine
 10
223.520063
 20
117.971894
 30
0.0
 11
223.52006221819764
 21
117.97189491419871
 31
0.0
  0
LINE
  5
B4
330
17
100
AcDbEntity
  8
0
100
AcDbLine
 10
225.820791
 20
119.850606
 30
0.0
 11
225.82079064243618
 21
119.85060645585784
 31
0.0
  0
LINE
  5
B5
330
17
100
AcDbEntity
  8
0
100
AcDbLine
 10
230.759475
 20
167.602482
 30
0.0
 11
230.75947596675678
 21
167.60248250100474
 31
0.0
  0
LINE
  5
B6
330
17
100
AcDbEntity
  8
0
100
AcDbLine
 10
172.710754
 20
174.469953
 30
0.0
 11
172.710754
 21
174.46995299999975
 31
0.0
  0
LINE
  5
B7
330
17
100
AcDbEntity
  8
0
100
AcDbLine
 10
170.832336
 20
173.156645
 30
0.0
 11
170.83233574574743
 21
173.15664424218213
 31
0.0
  0
LINE
  5
B8
330
17
100
AcDbEntity
  8
0
100
AcDbLine
 10
167.5064
 20
164.058671
 30
0.0
 11
167.50639974574716
 21
164.0586712421822
 31
0.0
  0
LINE
  5
B9
330
17
100
AcDbEntity
  8
0
100
AcDbLine
 10
167.397674
 20
163.598386
 30
0.0
 11
167.3976742886468
 21
163.59838642753581
 31
0.0
  0
LINE
  5
BA
330
17
100
AcDbEntity
  8
0
100
AcDbLine
 10
163.108637
 20
125.953986
 30
0.0
 11
163.1086362886468
 21
125.95398542753583
 31
0.0
  0
LINE
  5
BB
330
17
100
AcDbEntity
  8
0
100
AcDbLine
 10
165.009601
 20
123.729437
 30
0.0
 11
165.00960051584084
 21
123.72943658853126
 31
0.0
  0
LINE
  5
BC
330
17
100
AcDbEntity
  8
0
100
AcDbLine
 10
182.887472
 20
122.958368
 30
0.0
 11
182.88747151584084
 21
122.95836758853127
 31
0.0
  0
LINE
  5
BD
330
17
100
AcDbEntity
  8
0
100
AcDbLine
 10
184.958826
 20
124.713444
 30
0.0
 11
184.9588257730662
 21
124.7134439176655
 31
0.0
  0
LINE
  5
BE
330
17
100
AcDbEntity
  8
0
100
AcDbLine
 10
192.262392
 20
172.122388
 30
0.0
 11
192.26239209915641
 21
172.1223878941776
 31
0.0
  0
LINE
  5
BF
330
17
100
AcDbEntity
  8
0
100
AcDbLine
 10
191.713216
 20
74.571435
 30
0.0
 11
191.7132162053101
 21
74.57143496754811
 31
0.0
  0
LINE
  5
C0
330
17
100
AcDbEntity
  8
0
100
AcDbLine
 10
186.284674
 20
119.124469
 30
0.0
 11
186.28467420531007
 21
119.12446896754811
 31
0.0
  0
LINE
  5
C1
330
17
100
AcDbEntity
  8
0
100
AcDbLine
 10
184.385536
 20
120.880711
 30
0.0
 11
184.38553648415913
 21
120.88071141146874
 31
0.0
  0
LINE
  5
C2
330
17
100
AcDbEntity
  8
0
100
AcDbLine
 10
164.986374
 20
121.717393
 30
0.0
 11
164.98637448415914
 21
121.71739341146873
 31
0.0
  0
LINE
  5
C3
330
17
100
AcDbEntity
  8
0
100
AcDbLine
 10
164.408859
 20
74.844542
 30
0.0
 11
164.40885903123092
 21
74.84454183274015
 31
0.0
  0
LINE
  5
C4
330
17
100
AcDbEntity
  8
0
100
AcDbLine
 10
168.105846
 20
72.726476
 30
0.0
 11
168.1058460312382
 21
72.72647583275283
 31
0.0
  0
LINE
  5
C5
330
17
100
AcDbEntity
  8
0
100
AcDbLine
 10
169.597182
 20
72.329535
 30
0.0
 11
169.597182
 21
72.3295350000146
 31
0.0
  0
LINE
  5
C6
330
17
100
AcDbEntity
  8
0
100
AcDbLine
 10
230.566079
 20
74.516267
 30
0.0
 11
230.56607973700002
 21
74.51626670515125
 31
0.0
  0
LINE
  5
C7
330
17
100
AcDbEntity
  8
0
100
AcDbLine
 10
226.873632
 20
113.891668
 30
0.0
 11
226.87363273700004
 21
113.89166770515125
 31
0.0
  0
LINE
  5
C8
330
17
100
AcDbEntity
  8
0
100
AcDbLine
 10
225.185508
 20
115.681829
 30
0.0
 11
225.18550878180235
 21
115.68182908580125
 31
0.0
  0
LINE
  5
C9
330
17
100
AcDbEntity
  8
0
100
AcDbLine
 10
192.8312
 20
120.643088
 30
0.0
 11
192.83119978180235
 21
120.64308808580125
 31
0.0
  0
LINE
  5
CA
330
17
100
AcDbEntity
  8
0
100
AcDbLine
 10
190.542743
 20
118.424295
 30
0.0
 11
190.54274279468993
 21
118.4242950324519
 31
0.0
  0
LINE
  5
CB
330
17
100
AcDbEntity
  8
0
100
AcDbLine
 10
195.944921
 20
74.087635
 30
0.0
 11
195.94492079468992
 21
74.0876350324519
 31
0.0
  0
LINE
  5
CC
330
17
100
AcDbEntity
  8
0
100
AcDbLine
 10
196.02695798069615
 20
173.83396305930455
 30
0.0
 11
196.02695793330287
 21
173.83396313169155
 31
0.0
  0
LINE
  5
CD
330
17
100
AcDbEntity
  8
0
100
AcDbLine
 10
228.82059238210857
 20
173.38225793010395
 30
0.0
 11
228.82059270734788
 21
173.3822574193771
 31
0.0
  0
ENDSEC
  0
SECTION
  2
OBJECTS
  0
DICTIONARY
  5
A
330
0
100
AcDbDictionary
280
0
281
1
  3
ACAD_COLOR
350
B
  3
ACAD_GROUP
350
C
  3
ACAD_LAYOUT
350
D
  3
ACAD_MATERIAL
350
E
  3
ACAD_MLEADERSTYLE
350
F
  3
ACAD_MLINESTYLE
350
10
  3
ACAD_PLOTSETTINGS
350
11
  3
ACAD_PLOTSTYLENAME
350
12
  3
ACAD_SCALELIST
350
14
  3
ACAD_TABLESTYLE
350
15
  3
ACAD_VISUALSTYLE
350
16
  3
EZDXF_META
350
2D
  0
DICTIONARY
  5
B
330
A
100
AcDbDictionary
280
0
281
1
  0
DICTIONARY
  5
C
330
A
100
AcDbDictionary
280
0
281
1
  0
DICTIONARY
  5
D
330
A
100
AcDbDictionary
280
0
281
1
  3
Model
350
1A
  3
Layout1
350
1E
  0
DICTIONARY
  5
E
330
A
100
AcDbDictionary
280
0
281
1
  3
ByBlock
350
1F
  3
ByLayer
350
20
  3
Global
350
21
  0
DICTIONARY
  5
F
330
A
100
AcDbDictionary
280
0
281
1
  3
Standard
350
2C
  0
DICTIONARY
  5
10
330
A
100
AcDbDictionary
280
0
281
1
  3
Standard
350
22
  0
DICTIONARY
  5
11
330
A
100
AcDbDictionary
280
0
281
1
  0
ACDBDICTIONARYWDFLT
  5
12
330
A
100
AcDbDictionary
280
0
281
1
  3
Normal
350
13
100
AcDbDictionaryWithDefault
340
13
  0
ACDBPLACEHOLDER
  5
13
330
12
  0
DICTIONARY
  5
14
330
A
100
AcDbDictionary
280
0
281
1
  0
DICTIONARY
  5
15
330
A
100
AcDbDictionary
280
0
281
1
  0
DICTIONARY
  5
16
330
A
100
AcDbDictionary
280
0
281
1
  0
LAYOUT
  5
1A
330
D
100
AcDbPlotSettings
  1

  4
A3
  6

 40
7.5
 41
20.0
 42
7.5
 43
20.0
 44
420.0
 45
297.0
 46
0.0
 47
0.0
 48
0.0
 49
0.0
140
0.0
141
0.0
142
1.0
143
1.0
 70
1024
 72
1
 73
0
 74
5
  7

 75
16
 76
0
 77
2
 78
300
147
1.0
148
0.0
149
0.0
100
AcDbLayout
  1
Model
 70
1
 71
0
 10
0.0
 20
0.0
 11
420.0
 21
297.0
 12
0.0
 22
0.0
 32
0.0
 14
1e+20
 24
1e+20
 34
1e+20
 15
-1e+20
 25
-1e+20
 35
-1e+20
146
0.0
 13
0.0
 23
0.0
 33
0.0
 16
1.0
 26
0.0
 36
0.0
 17
0.0
 27
1.0
 37
0.0
 76
1
330
17
  0
LAYOUT
  5
1E
330
D
100
AcDbPlotSettings
  1

  4
A3
  6

 40
7.5
 41
20.0
 42
7.5
 43
20.0
 44
420.0
 45
297.0
 46
0.0
 47
0.0
 48
0.0
 49
0.0
140
0.0
141
0.0
142
1.0
143
1.0
 70
0
 72
1
 73
0
 74
5
  7

 75
16
 76
0
 77
2
 78
300
147
1.0
148
0.0
149
0.0
100
AcDbLayout
  1
Layout1
 70
1
 71
1
 10
0.0
 20
0.0
 11
420.0
 21
297.0
 12
0.0
 22
0.0
 32
0.0
 14
1e+20
 24
1e+20
 34
1e+20
 15
-1e+20
 25
-1e+20
 35
-1e+20
146
0.0
 13
0.0
 23
0.0
 33
0.0
 16
1.0
 26
0.0
 36
0.0
 17
0.0
 27
1.0
 37
0.0
 76
1
330
1B
  0
MATERIAL
  5
1F
102
{ACAD_REACTORS
330
E
102
}
330
E
100
AcDbMaterial
  1
ByBlock
  2

 70
0
 40
1.0
 71
1
 41
1.0
 91
-1023410177
 42
1.0
 72
1
  3

 73
1
 74
1
 75
1
 44
0.5
 73
0
 45
1.0
 46
1.0
 77
1
  4

 78
1
 79
1
170
1
 48
1.0
171
1
  6

172
1
173
1
174
1
140
1.0
141
1.0
175
1
  7

176
1
177
1
178
1
143
1.0
179
1
  8

270
1
271
1
272
1
145
1.0
146
1.0
273
1
  9

274
1
275
1
276
1
 42
1.0
 72
1
  3

 73
1
 74
1
 75
1
 94
63
  0
MATERIAL
  5
20
102
{ACAD_REACTORS
330
E
102
}
330
E
100
AcDbMaterial
  1
ByLayer
  2

 70
0
 40
1.0
 71
1
 41
1.0
 91
-1023410177
 42
1.0
 72
1
  3

 73
1
 74
1
 75
1
 44
0.5
 73
0
 45
1.0
 46
1.0
 77
1
  4

 78
1
 79
1
170
1
 48
1.0
171
1
  6

172
1
173
1
174
1
140
1.0
141
1.0
175
1
  7

176
1
177
1
178
1
143
1.0
179
1
  8

270
1
271
1
272
1
145
1.0
146
1.0
273
1
  9

274
1
275
1
276
1
 42
1.0
 72
1
  3

 73
1
 74
1
 75
1
 94
63
  0
MATERIAL
  5
21
102
{ACAD_REACTORS
330
E
102
}
330
E
100
AcDbMaterial
  1
Global
  2

 70
0
 40
1.0
 71
1
 41
1.0
 91
-1023410177
 42
1.0
 72
1
  3

 73
1
 74
1
 75
1
 44
0.5
 73
0
 45
1.0
 46
1.0
 77
1
  4

 78
1
 79
1
170
1
 48
1.0
171
1
  6

172
1
173
1
174
1
140
1.0
141
1.0
175
1
  7

176
1
177
1
178
1
143
1.0
179
1
  8

270
1
271
1
272
1
145
1.0
146
1.0
273
1
  9

274
1
275
1
276
1
 42
1.0
 72
1
  3

 73
1
 74
1
 75
1
 94
63
  0
MLINESTYLE
  5
22
102
{ACAD_REACTORS
330
10
102
}
330
10
100
AcDbMlineStyle
  2
Standard
 70
0
  3

 62
256
 51
90.0
 52
90.0
 71
2
 49
0.5
 62
256
  6
BYLAYER
 49
-0.5
 62
256
  6
BYLAYER
  0
MLEADERSTYLE
  5
2C
102
{ACAD_REACTORS
330
F
102
}
330
F
100
AcDbMLeaderStyle
179
2
170
2
171
1
172
0
 90
2
 40
0.0
 41
0.0
173
1
 91
-1056964608
 92
-2
290
1
 42
2.0
291
1
 43
8.0
  3
Standard
 44
4.0
300

342
29
174
1
175
1
176
0
178
1
 93
-1056964608
 45
4.0
292
0
297
0
 46
4.0
 94
-1056964608
 47
1.0
 49
1.0
140
1.0
294
1
141
0.0
177
0
142
1.0
295
0
296
0
143
3.75
271
0
272
9
273
9
  0
DICTIONARY
  5
2D
330
A
100
AcDbDictionary
280
1
281
1
  3
CREATED_BY_EZDXF
350
2E
  3
WRITTEN_BY_EZDXF
350
D0
  0
DICTIONARYVAR
  5
2E
330
2D
100
DictionaryVariables
280
0
  1
1.4.0 @ 2025-03-21T12:28:59.519285+00:00
  0
DICTIONARYVAR
  5
D0
330
2D
100
DictionaryVariables
280
0
  1
1.4.0 @ 2025-03-21T12:28:59.533974+00:00
  0
ENDSEC
  0
EOF
